<?xml version="1.0" encoding="UTF-8" standalone="no"?>
<!--
  Mad Catz M.M.O. 7+ wireless gaming mouse (USB 0738:1c02)

  Button index notes (libratbag indices, 0-based):
    0  = left mouse button
    1  = right mouse button
    2  = middle mouse button (scroll wheel press)
    3  = unmapped, no known physical button (likely virtual wheel slot)
    4  = unmapped, no known physical button (likely virtual wheel slot)
    5-9 = top-side buttons around the click and scroll cluster
    10-19 = thumb-side panel and thumb buttons
    20 = unmapped, no known physical button
-->
<svg
   xmlns:svg="http://www.w3.org/2000/svg"
   xmlns="http://www.w3.org/2000/svg"
   xmlns:inkscape="http://www.inkscape.org/namespaces/inkscape"
   width="717"
   height="649"
   viewBox="0 0 2050 1856"
   id="svg1"
   version="1.1">

  <g
     inkscape:groupmode="layer"
     id="Device"
     inkscape:label="Device"
     style="display:inline">

<metadata>
Created by potrace 1.16, written by Peter Selinger 2001-2019
</metadata>
<g transform="translate(0.000000,1856.000000) scale(0.100000,-0.100000)"
fill="#5a5a5a" stroke="none">
<path d="M12825 15980 c-33 -5 -103 -14 -155 -20 -378 -45 -763 -111 -1085
-184 -298 -67 -911 -227 -950 -246 -59 -30 -80 -65 -79 -127 0 -57 -8 -64 -40
-34 -28 26 -88 41 -128 32 -40 -10 -186 -82 -248 -124 -125 -84 -191 -160
-229 -263 -11 -29 -46 -162 -76 -296 -31 -134 -68 -290 -81 -348 -14 -58 -28
-123 -33 -145 -5 -22 -25 -112 -46 -200 -226 -965 -276 -1189 -290 -1280 -27
-181 -14 -410 28 -490 15 -28 10 -80 -14 -160 -44 -149 -49 -174 -60 -285 -11
-107 -10 -129 14 -315 15 -110 36 -290 47 -400 11 -110 23 -214 25 -230 5 -29
3 -30 -32 -31 -70 -2 -109 -27 -145 -91 -21 -38 -89 -114 -198 -224 -151 -152
-236 -229 -498 -451 -50 -43 -112 -107 -137 -142 -76 -107 -91 -163 -154 -596
-22 -151 -70 -466 -105 -700 -66 -428 -131 -867 -187 -1255 -16 -115 -48 -325
-71 -465 -36 -221 -42 -276 -42 -410 0 -146 2 -159 28 -229 38 -101 78 -165
150 -239 113 -118 103 -112 1316 -795 537 -303 494 -288 802 -264 117 10 250
17 296 17 l82 0 48 -62 c99 -131 176 -199 287 -256 50 -25 130 -38 139 -23 4
6 11 11 16 11 11 0 80 -103 80 -119 0 -6 -9 -28 -20 -48 -27 -50 -26 -107 5
-400 36 -339 50 -425 79 -481 65 -129 203 -184 461 -184 99 0 178 7 270 22 72
13 135 23 140 23 6 0 37 -18 70 -40 121 -81 253 -138 408 -176 86 -21 114 -22
435 -22 l342 0 5 -30 c2 -16 15 -147 29 -290 14 -143 32 -283 41 -312 34 -113
164 -205 360 -255 77 -19 116 -23 270 -22 163 0 191 2 290 27 227 57 364 156
388 282 7 36 11 77 38 475 13 205 24 307 32 312 7 4 20 8 30 8 74 0 586 161
735 230 153 72 295 168 413 280 159 150 356 470 512 830 121 278 320 801 457
1200 28 80 50 130 64 140 11 8 37 30 57 48 20 17 39 32 41 32 3 0 6 -84 7
-187 1 -124 6 -192 14 -201 18 -23 123 -11 189 21 130 64 190 153 283 427 132
388 255 882 309 1242 70 465 78 720 36 1138 -80 785 -131 1194 -295 2365 -41
292 -81 584 -90 650 -9 66 -27 188 -40 270 -12 83 -26 183 -30 222 -6 69 -4
76 25 132 46 86 51 26 -64 786 -137 902 -138 912 -167 940 -26 26 -154 95
-175 95 -12 0 -18 18 -29 95 -3 22 -7 56 -10 75 -23 161 -77 519 -82 540 -11
45 -40 94 -76 127 -69 62 -535 307 -882 462 -88 40 -174 79 -191 86 -17 8
-126 53 -243 99 -366 147 -878 310 -1017 323 -60 5 -63 5 -99 -29 -35 -32 -39
-41 -43 -97 -3 -36 -9 -61 -16 -61 -6 0 -56 9 -111 19 -55 11 -120 22 -145 26
-25 3 -56 8 -70 10 -59 11 -246 26 -381 32 -110 4 -509 -9 -584 -21 -5 0 -11
26 -13 59 -6 140 -54 169 -237 145z m138 -89 c6 -6 12 -35 15 -65 5 -61 19
-52 -120 -76 -66 -12 -68 -12 -98 13 -67 57 -100 57 -390 7 -469 -82 -918
-182 -1285 -287 -113 -32 -150 -51 -203 -103 l-43 -41 -77 1 c-118 3 -122 5
-122 56 0 53 9 59 135 90 50 12 144 36 210 54 715 187 1171 277 1725 341 102
11 187 23 189 25 7 6 54 -5 64 -15z m1676 -101 c110 -27 414 -123 591 -185
121 -43 392 -151 580 -232 341 -147 890 -425 974 -495 51 -42 73 -95 90 -218
32 -229 86 -586 91 -600 4 -15 98 -673 150 -1055 14 -104 39 -284 56 -400 70
-497 80 -568 99 -720 56 -422 66 -699 36 -902 -21 -138 -92 -384 -171 -588
-13 -33 -38 -100 -55 -150 -50 -138 -186 -489 -210 -540 -6 -11 -25 -60 -43
-110 -33 -87 -214 -538 -242 -600 -14 -32 -90 -213 -153 -365 -100 -241 -126
-300 -132 -300 -3 0 -14 15 -23 33 -9 17 -22 39 -28 48 -9 12 4 53 69 205 283
663 614 1491 742 1854 103 292 147 504 154 750 5 200 -13 386 -119 1170 -18
140 -41 309 -50 375 -8 66 -27 201 -40 300 -14 99 -27 196 -30 215 -3 19 -14
102 -25 183 -11 81 -24 176 -30 210 -5 34 -25 181 -45 327 -20 146 -49 363
-66 484 -16 120 -32 229 -35 242 -7 27 -49 54 -125 79 -40 13 -70 34 -116 79
-171 166 -869 495 -1521 717 -187 64 -232 70 -297 41 -39 -18 -40 -18 -127 10
-49 15 -97 28 -108 28 -18 0 -20 7 -20 60 0 46 4 61 18 69 25 15 31 14 161
-19z m-1929 -32 l45 -23 -4 -1070 c-2 -588 -1 -1068 2 -1065 9 9 23 591 33
1385 7 610 10 704 19 713 10 11 95 28 133 28 l34 -1 -2 -1109 c-1 -975 -3
-1112 -16 -1135 -8 -14 -57 -53 -107 -86 -51 -33 -96 -64 -102 -68 -5 -4 -102
-69 -215 -144 -113 -75 -221 -148 -240 -163 -19 -14 -55 -38 -81 -52 -25 -15
-72 -47 -106 -72 -103 -78 -96 -4 -94 -954 2 -591 5 -831 14 -849 11 -24 70
-60 144 -86 21 -8 135 -53 253 -102 118 -48 260 -105 315 -127 55 -22 125 -51
155 -65 30 -14 65 -29 78 -34 l22 -9 0 -470 c0 -300 -4 -470 -10 -470 -5 0
-83 30 -172 66 -90 36 -269 109 -398 161 -129 53 -278 113 -330 133 -52 21
-162 65 -245 99 -82 34 -372 150 -643 259 -270 109 -504 207 -518 218 l-27 19
-1 2313 -1 2313 90 -3 90 -3 -1 -65 c-1 -161 -16 -788 -19 -812 -2 -14 -5
-214 -8 -445 -6 -421 5 -473 17 -83 4 113 9 241 11 285 3 44 7 184 10 310 3
127 8 257 10 290 2 33 7 155 10 270 4 116 11 224 16 241 12 40 73 98 129 123
66 29 510 145 810 211 234 52 756 146 830 149 14 0 46 -9 70 -21z m1140 -59
c135 -11 328 -39 453 -66 l77 -16 0 -156 c0 -86 2 -524 5 -973 l4 -818 -55 0
-54 0 0 403 c0 398 0 403 -22 447 -24 47 -101 109 -188 152 -25 12 -62 32 -82
45 -37 22 -44 23 -268 23 l-230 0 -88 -50 c-123 -70 -182 -118 -209 -169 -23
-44 -23 -45 -23 -447 l0 -403 -22 -3 c-13 -2 -39 -1 -59 0 l-35 4 2 526 c2
290 3 744 3 1008 l1 481 83 8 c108 11 401 21 502 18 44 -2 136 -8 205 -14z
m680 -64 c30 -8 71 -22 91 -30 30 -14 36 -21 36 -48 -1 -103 16 -1351 19
-1392 1 -27 4 -156 5 -285 1 -129 6 -248 10 -265 5 -16 6 421 4 973 l-4 1002
27 18 c61 40 170 13 603 -152 373 -141 855 -369 1085 -511 73 -46 148 -118
163 -158 12 -30 95 -674 136 -1047 3 -25 14 -119 25 -210 11 -91 31 -259 44
-375 101 -855 135 -1126 143 -1135 9 -10 -20 289 -96 980 -55 497 -101 904
-106 935 -2 17 -7 50 -10 75 -17 161 -27 243 -54 470 -17 140 -34 267 -37 282
l-6 28 39 -16 c86 -36 91 -41 102 -96 6 -29 27 -174 46 -323 20 -148 51 -378
70 -510 19 -132 55 -391 80 -575 25 -184 57 -414 70 -510 87 -630 150 -1128
164 -1300 22 -275 -12 -568 -99 -835 -106 -327 -421 -1125 -765 -1935 -109
-256 -106 -250 -124 -250 -9 0 -72 23 -141 51 -69 28 -309 124 -535 215 -225
91 -423 171 -440 178 -16 8 -109 45 -205 84 -96 39 -508 204 -915 367 -407
163 -749 305 -760 316 -19 19 -20 35 -23 474 -3 370 -1 455 10 455 7 0 67 -22
133 -50 66 -27 287 -115 490 -196 204 -80 440 -175 525 -209 133 -55 376 -152
762 -306 113 -46 140 -48 173 -14 19 18 25 35 25 70 0 25 6 108 14 183 19 174
59 672 81 987 3 44 8 100 10 125 2 25 7 77 10 115 57 730 75 981 75 1035 -1
100 -28 147 -183 322 -35 40 -131 150 -213 243 -81 94 -196 223 -254 289 -58
65 -118 135 -135 155 -16 20 -58 66 -93 101 -34 36 -78 90 -97 121 l-34 55 -3
1022 c-2 562 -1 1022 2 1022 3 0 30 -7 60 -15z m-4079 -325 c18 -10 19 -25 19
-380 l0 -370 -43 0 c-57 0 -129 -25 -157 -55 -27 -29 -37 -63 -145 -505 -104
-427 -170 -727 -186 -844 -23 -179 -7 -233 161 -542 171 -314 310 -545 344
-573 15 -13 17 -61 15 -643 0 -346 -3 -627 -6 -624 -17 17 -419 815 -565 1121
-208 437 -224 488 -216 709 5 119 10 147 57 316 61 215 146 529 195 715 19 72
42 157 51 190 9 33 32 116 50 185 18 69 63 231 100 360 37 129 75 264 84 300
10 36 39 144 66 240 38 142 94 326 120 398 5 15 30 16 56 2z m-104 -37 c-19
-36 -59 -163 -92 -288 -14 -55 -41 -154 -60 -220 -19 -66 -53 -187 -76 -270
-22 -82 -46 -170 -53 -195 -7 -25 -28 -99 -45 -165 -18 -66 -42 -151 -53 -190
-11 -38 -26 -95 -33 -125 -31 -127 -200 -746 -224 -825 -6 -16 -24 -86 -41
-154 -29 -112 -32 -139 -32 -275 -1 -181 9 -224 92 -416 133 -307 509 -1070
674 -1365 l56 -100 0 -93 c0 -72 -3 -92 -12 -86 -37 21 -254 203 -284 238 -46
53 -89 132 -157 286 -31 69 -101 228 -157 354 -125 283 -346 836 -372 931 -25
92 -33 247 -19 367 10 87 58 312 125 591 48 198 85 353 111 467 15 63 44 187
65 275 21 88 50 214 64 280 43 203 144 628 159 672 23 67 63 128 114 174 43
37 236 158 256 159 4 0 1 -12 -6 -27z m260 -3173 l-3 -1485 -26 -70 c-15 -38
-31 -71 -37 -73 -33 -11 -34 57 -26 2263 4 1199 9 2248 11 2330 2 83 4 155 4
161 0 7 17 19 38 27 l37 15 3 -842 c1 -462 1 -1509 -1 -2326z m3372 2548 c20
-12 46 -30 59 -41 l22 -20 0 -1254 0 -1253 -22 0 c-97 -3 -633 2 -636 5 -4 4
-8 2212 -4 2390 l3 130 47 32 47 32 224 0 c212 1 226 0 260 -21z m-636 -72 c8
-19 4 -2486 -3 -2486 -12 0 -89 87 -106 120 -17 33 -18 94 -19 1130 -1 635 2
1109 7 1129 9 30 89 121 108 121 4 0 10 -6 13 -14z m818 -23 c79 -71 73 30 73
-1183 1 -597 -1 -1101 -2 -1121 -3 -26 -19 -55 -53 -98 -28 -33 -54 -61 -59
-61 -6 0 -10 463 -10 1250 0 688 2 1250 5 1250 3 0 23 -17 46 -37z m-3707 -49
c14 -5 15 -121 9 -1172 -3 -642 -7 -1168 -9 -1170 -7 -9 -144 223 -244 413
-35 66 -66 125 -70 130 -4 6 -34 62 -66 125 -53 106 -58 121 -62 195 -5 96 1
130 114 610 110 465 202 832 214 856 8 14 22 19 55 19 24 0 50 -3 59 -6z
m-160 -59 c-24 -78 -117 -458 -184 -746 -33 -145 -72 -313 -86 -374 -35 -147
-49 -268 -40 -339 6 -47 29 -101 110 -260 114 -223 206 -389 303 -544 36 -57
63 -106 60 -109 -20 -19 -449 750 -484 867 -29 101 -12 230 92 670 173 735
198 833 221 868 23 34 25 23 8 -33z m6873 -507 c6 -7 14 -33 18 -58 3 -25 26
-175 51 -335 25 -159 52 -333 60 -385 42 -268 114 -778 114 -803 0 -41 -51
-87 -96 -87 -30 0 -34 3 -38 33 -9 55 -25 169 -41 294 -15 110 -20 150 -30
213 -2 14 -18 122 -34 240 -17 118 -53 377 -81 575 -27 198 -50 366 -50 373 0
14 108 -37 127 -60z m-3997 -588 l0 -280 -35 0 -35 0 0 123 c0 112 -2 126 -26
170 -24 45 -25 55 -21 155 3 59 5 108 6 110 1 1 26 2 56 2 l55 0 0 -280z
m1213 268 c-2 -5 -3 -129 -3 -278 l0 -270 -50 0 -50 0 0 273 c0 151 3 277 7
281 9 9 99 3 96 -6z m266 -313 c75 -83 161 -180 191 -216 30 -35 76 -86 101
-114 25 -27 141 -159 256 -293 172 -198 213 -251 224 -289 10 -38 10 -82 0
-238 -7 -105 -14 -204 -16 -220 -2 -17 -6 -67 -10 -113 -18 -258 -25 -353 -30
-402 -2 -30 -7 -82 -10 -115 -2 -33 -25 -321 -50 -640 -25 -319 -50 -590 -55
-602 -11 -26 -38 -29 -90 -9 -100 39 -418 167 -435 176 -11 5 -71 30 -134 55
-103 40 -130 56 -131 76 0 10 43 -7 388 -145 172 -69 321 -126 331 -126 10 0
26 12 36 26 18 28 19 40 50 489 8 127 17 259 20 295 25 314 87 1214 92 1325 5
118 3 146 -11 172 -8 17 -91 118 -183 225 -93 106 -222 256 -287 333 -66 77
-134 156 -152 175 -18 19 -50 56 -71 81 -21 25 -77 91 -124 145 -96 111 -109
131 -109 169 0 25 2 23 36 -21 20 -26 97 -115 173 -199z m-1666 69 c-67 -53
-474 -334 -500 -345 -4 -2 -61 -40 -127 -84 -65 -44 -126 -84 -135 -90 -48
-29 -84 -66 -96 -101 -12 -32 -14 -160 -15 -701 0 -430 4 -671 10 -689 9 -24
60 -93 60 -81 0 5 116 -40 350 -136 74 -30 221 -89 325 -132 105 -42 196 -82
203 -88 7 -5 14 -8 16 -6 6 6 16 996 16 1572 l0 527 40 0 40 0 0 -358 0 -358
-27 -10 -26 -9 2 -679 c1 -373 5 -684 7 -691 6 -14 211 -104 409 -180 66 -25
131 -50 145 -56 121 -52 575 -230 609 -239 39 -10 47 -10 57 5 23 31 27 210
21 950 -4 407 -7 775 -7 818 l0 77 -40 0 -40 0 0 365 0 365 49 0 c46 0 50 -2
54 -27 3 -16 5 -35 5 -43 -3 -88 14 -2420 18 -2465 3 -38 15 -76 31 -103 l25
-44 -23 7 c-13 4 -42 15 -64 25 -22 10 -65 28 -95 39 -50 19 -362 143 -550
219 -41 17 -163 65 -270 107 -107 42 -214 85 -237 96 -23 10 -45 19 -48 19 -4
0 -37 14 -73 31 -37 17 -186 78 -332 135 -146 58 -285 113 -310 124 -25 10
-72 28 -105 40 -33 12 -91 36 -130 54 -38 19 -87 39 -108 46 -20 6 -42 20 -47
30 -11 20 -15 1403 -4 1455 3 17 11 37 17 45 23 30 232 176 403 283 22 14 47
31 55 39 16 15 152 106 186 124 12 7 62 40 110 75 48 34 104 73 123 87 l35 24
3 -27 c2 -17 -3 -32 -15 -41z m1553 -49 c44 -49 118 -135 165 -191 47 -55 99
-116 116 -135 17 -19 59 -67 94 -108 35 -41 138 -160 228 -265 91 -105 175
-206 188 -225 33 -49 33 -47 -32 -926 -18 -243 -19 -262 -50 -695 -13 -190
-28 -406 -32 -480 -11 -200 -19 -103 -27 316 -6 325 -9 439 -21 859 -3 88 -8
295 -11 460 -3 165 -10 319 -15 343 -12 55 -46 109 -129 202 -37 41 -76 86
-88 100 -11 14 -105 124 -209 245 -103 121 -210 247 -236 279 l-48 59 2 102
c1 110 7 158 18 153 4 -2 43 -43 87 -93z m-1486 -101 l0 -91 -332 -219 c-183
-120 -344 -229 -359 -242 -32 -27 -65 -119 -74 -207 -3 -33 -12 -109 -20 -170
-7 -60 -21 -177 -30 -260 -9 -82 -25 -222 -36 -310 -11 -88 -23 -208 -26 -267
-6 -105 -14 -132 -27 -85 -3 12 -6 319 -6 682 0 608 1 663 18 695 14 28 79 77
342 253 408 273 384 256 455 311 l60 45 17 -22 c14 -17 18 -42 18 -113z m-7
-1186 c-3 -579 -6 -1054 -7 -1055 -2 -2 -495 195 -736 294 l-95 39 1 110 c1
60 13 208 28 329 15 121 33 279 41 350 61 542 52 512 187 601 51 34 203 134
337 223 134 88 245 161 247 161 1 0 0 -474 -3 -1052z m1613 806 c115 -135 226
-267 247 -293 22 -25 53 -62 71 -81 72 -79 116 -144 131 -191 11 -38 15 -113
16 -302 1 -139 8 -423 14 -632 7 -209 15 -542 19 -740 4 -198 9 -386 12 -417
3 -33 2 -58 -3 -58 -5 0 -65 23 -134 51 -272 112 -494 199 -505 199 -30 0 -62
41 -68 87 -3 27 -8 611 -11 1298 -3 688 -8 1267 -11 1288 -3 20 -1 37 4 37 4
0 102 -111 218 -246z m2723 -948 c12 -72 30 -207 41 -300 11 -92 22 -182 25
-200 43 -303 92 -854 110 -1231 3 -66 8 -154 10 -195 8 -107 24 -433 33 -650
12 -319 9 -1024 -6 -1125 -25 -166 -135 -649 -212 -931 -94 -345 -245 -817
-282 -884 -28 -51 -113 -150 -129 -150 -4 0 3 35 17 78 190 606 407 1613 449
2087 16 184 18 590 4 850 -18 311 -38 654 -70 1155 -25 387 -27 440 -18 446 8
5 27 167 34 304 7 127 -9 390 -35 595 -10 83 -22 170 -25 195 -6 57 -24 186
-30 227 -5 27 -2 32 22 40 l28 10 7 -95 c4 -52 16 -154 27 -226z m-3067 -298
c2 -337 4 -614 3 -615 -5 -11 -127 645 -188 1014 -3 17 12 39 58 85 34 35 72
78 84 96 12 17 26 32 31 32 4 0 10 -276 12 -612z m-1032 466 c56 -40 57 -44
36 -142 -8 -37 -38 -190 -67 -339 -28 -150 -55 -273 -59 -273 -17 0 -20 64
-20 464 l0 420 30 -47 c16 -25 52 -63 80 -83z m-3775 -38 c10 -23 13 -50 9
-79 -4 -25 -1 -91 5 -148 47 -414 236 -1977 247 -2035 5 -30 3 -32 -50 -54
-31 -12 -62 -20 -69 -17 -14 5 -23 64 -52 342 -94 907 -118 1121 -152 1390
-31 244 -34 360 -10 465 20 86 46 170 53 170 3 0 11 -15 19 -34z m4239 -36
l352 0 22 -122 c12 -68 33 -188 47 -268 40 -229 84 -446 111 -558 l26 -104
-52 -119 c-29 -65 -56 -119 -59 -119 -3 0 -33 11 -66 24 -33 14 -233 95 -445
180 l-385 154 -43 106 -43 105 16 53 c16 59 71 326 105 513 31 175 29 168 46
161 9 -3 174 -6 368 -6z m-4150 -234 c8 -55 18 -135 21 -176 3 -41 15 -100 25
-130 11 -33 29 -156 44 -305 15 -137 33 -306 42 -375 8 -69 33 -278 54 -465
22 -187 46 -384 52 -438 10 -84 10 -100 -3 -108 -8 -5 -19 -9 -24 -9 -11 0
-62 401 -145 1115 -21 188 -55 469 -75 625 -20 157 -38 328 -40 380 l-5 95 20
-54 c11 -29 26 -99 34 -155z m109 -233 c20 -50 43 -105 52 -123 26 -50 11 -46
-29 9 -25 34 -39 67 -46 108 -6 32 -13 69 -16 83 -9 42 2 19 39 -77z m71 -252
c55 -68 98 -138 154 -250 87 -173 84 -162 127 -501 58 -469 127 -1003 140
-1095 8 -55 30 -219 50 -365 20 -146 47 -341 60 -435 13 -93 38 -271 55 -395
37 -271 157 -1094 196 -1345 62 -400 239 -828 520 -1258 46 -70 84 -132 84
-137 0 -5 -37 -37 -82 -71 l-83 -61 -10 43 c-5 24 -49 109 -96 189 -191 319
-283 497 -375 722 -83 202 -110 307 -155 608 -16 113 -46 309 -65 435 -19 127
-66 453 -104 725 -39 272 -84 590 -100 705 -16 116 -48 343 -70 505 -23 162
-45 312 -51 333 -5 20 -29 59 -53 86 -38 43 -44 55 -49 112 -4 35 -27 235 -52
444 -50 420 -125 1072 -125 1094 0 18 -7 25 84 -88z m3452 -120 c19 -47 34
-91 34 -96 0 -6 -20 -31 -45 -55 l-45 -44 0 159 c1 178 1 178 56 36z m-1033
39 c63 -28 218 -90 343 -139 460 -178 441 -169 448 -210 10 -63 7 -121 -7
-121 -7 0 -89 31 -182 69 -94 38 -291 119 -440 180 -148 61 -275 118 -282 128
-15 19 -18 143 -4 143 5 0 61 -23 124 -50z m1542 -342 c198 -79 382 -153 408
-162 45 -17 50 -23 87 -97 44 -87 45 -89 28 -89 -11 0 -111 37 -173 65 -16 7
-129 52 -250 100 -195 76 -448 179 -587 238 -27 10 -48 24 -48 30 0 6 19 30
41 54 l42 42 46 -18 c25 -10 208 -83 406 -163z m585 -138 c0 -115 -3 -210 -7
-210 -5 1 -27 41 -50 91 l-43 90 40 88 c22 49 43 103 46 120 4 17 8 31 10 31
2 0 4 -94 4 -210z m-1225 117 c17 -5 32 -11 34 -13 2 -2 5 -293 8 -647 5 -637
1 -727 -28 -727 -24 0 -67 31 -73 52 -3 13 -6 324 -6 692 0 632 1 668 18 661
9 -4 31 -12 47 -18z m235 -91 c74 -30 209 -85 300 -121 91 -37 242 -97 335
-135 94 -38 337 -134 540 -215 204 -80 379 -150 390 -155 63 -29 295 -119 323
-125 31 -6 32 -8 32 -60 0 -97 -25 -123 -92 -95 -13 5 -167 66 -343 135 -176
70 -390 155 -475 190 -85 34 -366 147 -625 250 -258 103 -487 196 -507 206
l-38 19 0 86 c0 65 3 85 13 81 6 -3 73 -30 147 -61z m-3922 12 c11 -15 37
-169 119 -718 53 -354 58 -397 55 -530 -1 -80 -6 -174 -10 -210 -6 -57 -10
-65 -27 -62 -22 4 -62 37 -77 65 -18 35 -166 864 -174 977 -3 41 -1 158 4 259
l9 184 29 24 c32 26 56 29 72 11z m761 -108 l104 -101 23 -152 c12 -84 34
-237 49 -342 63 -446 151 -918 285 -1516 l68 -305 6 -210 c3 -115 9 -393 12
-619 7 -457 3 -435 81 -510 55 -52 115 -83 179 -92 54 -7 57 -12 157 -258 128
-315 156 -382 207 -495 29 -63 75 -159 102 -214 27 -54 47 -100 45 -102 -20
-20 -274 -204 -282 -204 -8 0 -124 171 -200 295 -84 136 -201 380 -267 555
-94 250 -119 361 -182 795 -14 94 -48 325 -75 515 -48 327 -132 931 -186 1325
-14 99 -43 311 -65 470 -21 160 -60 450 -84 645 -67 524 -76 594 -81 608 -2 6
-3 12 -2 12 1 0 49 -45 106 -100z m497 -9 c5 -5 234 -99 509 -209 275 -110
667 -268 870 -350 204 -82 456 -184 560 -226 105 -43 204 -83 220 -90 17 -7
60 -26 98 -41 l67 -28 0 -99 c0 -111 4 -107 -75 -73 -38 17 -127 53 -395 158
-118 47 -381 151 -585 232 -203 81 -433 172 -510 201 -77 30 -149 59 -160 64
-11 5 -130 52 -265 105 -135 53 -280 110 -323 127 -112 44 -111 41 -46 216 9
24 19 27 35 13z m-1612 -359 c-102 -100 -188 -181 -190 -179 -2 2 -1 33 2 68
l7 64 181 176 181 177 3 -62 4 -61 -188 -183z m8240 152 c4 -86 9 -161 12
-168 3 -8 -22 -17 -76 -27 -44 -8 -80 -13 -80 -12 0 2 24 72 54 155 30 84 58
165 61 181 15 57 22 22 29 -129z m-6884 30 c57 -37 68 -49 89 -101 13 -32 55
-134 93 -228 38 -93 101 -242 139 -331 38 -88 69 -165 69 -170 0 -6 -37 -16
-82 -23 -46 -7 -123 -19 -172 -27 -49 -8 -90 -13 -91 -12 -5 8 -69 430 -95
623 -15 121 -32 244 -36 274 -6 45 -5 53 7 46 8 -5 43 -28 79 -51z m-1176
-116 c-6 -70 4 -144 72 -503 65 -342 112 -546 132 -575 10 -14 44 -42 75 -63
56 -38 57 -40 57 -85 0 -45 38 -380 60 -527 6 -38 24 -170 41 -292 l30 -222
-42 -82 -42 -81 6 -91 c6 -97 58 -341 83 -389 17 -33 69 -68 137 -93 26 -10
53 -27 58 -37 6 -11 18 -76 26 -144 l16 -125 -25 -27 c-57 -60 -58 -75 -22
-250 89 -435 164 -671 329 -1042 18 -41 50 -115 71 -165 60 -145 184 -419 195
-430 26 -26 3 -32 -168 -44 -321 -23 -389 -24 -440 -12 -47 12 -172 71 -242
115 -20 13 -74 43 -121 68 -107 57 -144 77 -360 201 -96 55 -251 143 -344 194
-196 109 -569 324 -576 332 -3 4 -23 18 -45 33 -168 112 -257 287 -256 504 0
104 54 477 77 541 26 71 133 159 288 238 217 111 328 204 360 303 11 31 25
167 41 392 14 190 32 435 40 545 8 110 24 319 35 465 11 146 22 281 25 300 2
19 7 85 10 145 3 61 8 126 10 145 2 19 7 76 10 125 3 50 10 144 16 210 l9 120
186 183 c103 100 188 182 190 182 2 0 1 -28 -2 -62z m1571 -43 c94 -36 442
-175 775 -307 333 -132 632 -251 665 -263 57 -21 686 -272 1215 -485 135 -54
526 -211 870 -348 344 -137 738 -295 875 -350 138 -56 383 -153 545 -217 362
-143 460 -185 460 -195 0 -13 -63 -62 -99 -77 -57 -24 29 -54 -991 352 -790
315 -1175 468 -1485 590 -490 193 -785 310 -885 351 -127 52 -747 297 -1190
470 -91 36 -174 69 -185 74 -11 5 -130 52 -265 106 l-245 97 -80 81 c-78 79
-134 141 -165 180 -13 18 -13 19 0 14 8 -3 92 -36 185 -73z m6829 -200 c58
-449 157 -1339 181 -1632 25 -309 18 -488 -35 -867 -33 -234 -45 -299 -90
-501 -59 -265 -232 -853 -280 -950 l-20 -40 4 35 c3 19 8 121 11 225 4 105 8
200 10 212 2 12 7 138 11 280 4 183 3 270 -5 300 -10 38 -7 58 34 215 78 302
176 754 191 878 16 144 3 1032 -21 1420 -3 47 -12 210 -20 362 -23 436 -20
443 29 63z m-7021 218 c23 -27 87 -95 143 -153 92 -96 104 -112 132 -185 75
-200 157 -380 189 -416 29 -32 62 -49 206 -105 170 -66 627 -247 987 -389 233
-93 508 -205 580 -238 94 -43 137 -105 148 -215 4 -37 6 -437 4 -888 l-2 -822
-173 -42 c-94 -24 -195 -50 -224 -60 l-51 -17 -5 51 c-2 28 -5 188 -6 356 -1
168 -4 341 -5 385 -2 44 -5 278 -6 520 -3 465 -8 526 -49 569 -26 27 -37 33
-166 86 -55 23 -109 45 -120 50 -11 5 -72 30 -135 56 -63 26 -158 65 -210 87
-199 83 -338 140 -429 173 -52 19 -99 38 -105 43 -6 5 -29 14 -51 21 -60 19
-184 78 -213 101 -46 36 -71 84 -197 384 -26 61 -83 193 -127 294 -92 211
-168 401 -161 401 3 0 24 -21 46 -47z m6701 -195 c3 -39 3 -75 -1 -79 -5 -3
-51 -14 -103 -23 -52 -9 -107 -19 -122 -22 l-27 -6 27 76 c16 42 33 81 39 87
8 8 123 34 169 38 7 1 14 -28 18 -71z m-8529 -434 c-19 -269 -49 -655 -65
-859 -16 -203 -36 -471 -45 -595 -34 -496 -44 -591 -69 -646 -33 -71 -111
-135 -269 -221 -201 -109 -219 -120 -266 -160 l-44 -38 7 30 c14 55 57 88 248
191 157 85 262 164 289 216 16 32 23 78 35 231 7 106 20 273 29 372 8 99 24
297 35 440 11 143 27 334 35 425 8 91 21 253 30 360 47 591 66 763 81 747 2
-2 -12 -224 -31 -493z m-30 364 l-7 -83 -80 -85 c-114 -120 -144 -159 -172
-221 -26 -57 -51 -193 -106 -579 -17 -118 -44 -300 -60 -405 -49 -316 -190
-1294 -190 -1315 0 -7 -85 -70 -94 -70 -2 0 1 26 6 58 5 31 29 192 53 357 61
415 132 891 150 1005 8 52 24 156 34 230 38 268 111 721 126 787 9 37 26 86
40 108 29 49 116 141 215 226 41 35 77 68 79 72 10 23 12 -10 6 -85z m2505
-146 c333 -132 605 -240 905 -357 94 -37 400 -158 680 -270 281 -112 587 -233
680 -270 375 -147 1479 -586 1635 -650 103 -42 394 -158 678 -270 79 -31 157
-59 173 -62 16 -3 29 -10 29 -16 0 -15 -107 -262 -143 -330 -48 -92 -105 -127
-277 -172 -100 -26 -532 -127 -1025 -241 -205 -47 -909 -205 -1025 -230 -63
-14 -158 -36 -210 -49 -118 -30 -287 -65 -311 -65 -18 0 -19 37 -21 883 l-3
882 -23 42 c-32 60 -72 98 -134 126 -82 38 -390 163 -718 293 -553 218 -765
301 -888 349 -67 26 -134 56 -147 67 -32 25 -58 76 -145 287 -74 179 -82 208
-52 192 9 -5 163 -67 342 -139z m6070 17 c0 -32 -3 -59 -7 -59 -27 0 -234 -33
-261 -42 -65 -20 -74 -92 -47 -398 13 -153 51 -546 75 -773 5 -54 10 -111 10
-127 0 -33 -15 -40 -25 -12 -3 9 -34 38 -69 64 l-63 46 -7 169 c-3 92 -9 210
-13 261 l-6 92 -27 0 c-16 0 -30 7 -34 16 -3 9 -6 76 -6 151 0 118 3 144 25
207 47 136 164 421 175 424 27 9 266 48 273 45 4 -2 7 -31 7 -64z m-8599 -146
c-24 -276 -82 -984 -91 -1098 -5 -66 -16 -203 -24 -305 -9 -102 -20 -248 -26
-325 -17 -221 -30 -361 -36 -393 -8 -41 -53 -93 -116 -135 -50 -32 -252 -147
-260 -147 -4 0 61 459 212 1490 57 392 109 713 121 750 11 36 32 81 47 100 37
49 176 200 180 195 2 -2 -1 -61 -7 -132z m8602 -23 c-4 -4 -66 -15 -136 -24
-70 -9 -134 -19 -142 -22 -21 -8 -20 40 1 60 18 19 29 21 149 36 50 7 97 13
105 14 17 2 36 -52 23 -64z m-7448 -64 c18 -19 37 -54 43 -78 9 -36 51 -329
128 -893 15 -108 48 -348 104 -740 48 -338 159 -1072 185 -1220 44 -254 105
-426 263 -745 87 -173 142 -271 274 -486 73 -119 82 -155 50 -194 -19 -23 -79
-38 -158 -39 -30 -1 -46 5 -63 23 l-23 24 76 42 c42 23 76 47 76 54 0 7 -14
34 -31 61 -17 27 -77 130 -133 230 -333 588 -380 730 -470 1413 -13 101 -27
186 -30 189 -7 7 -146 4 -158 -3 -11 -7 -32 41 -25 59 3 9 21 18 39 22 50 11
97 37 103 56 3 9 -1 63 -9 120 -68 465 -227 1695 -251 1934 -4 39 -12 78 -17
88 -11 21 -62 22 -138 2 -30 -8 -55 -13 -57 -12 -1 2 -4 13 -5 26 -3 20 9 28
82 62 47 21 91 39 99 39 7 0 28 -15 46 -34z m7459 -47 c3 -34 6 -74 6 -89 l0
-27 -127 -12 c-71 -6 -137 -14 -149 -17 -19 -5 -22 0 -27 48 -4 29 -7 67 -7
84 l0 31 143 20 c78 11 145 21 148 22 3 0 9 -27 13 -60z m-3880 -141 c292
-115 334 -132 1136 -455 267 -108 577 -233 690 -278 197 -79 398 -161 655
-267 66 -27 157 -63 202 -80 77 -29 84 -33 104 -76 20 -41 21 -50 10 -91 -7
-25 -15 -49 -19 -52 -7 -7 -102 28 -212 76 -30 13 -176 72 -325 131 -451 177
-698 276 -740 294 -22 10 -123 50 -225 90 -183 72 -483 193 -570 230 -25 11
-155 62 -290 114 -251 97 -601 236 -655 260 -16 8 -41 17 -53 21 -19 5 -22 11
-17 28 4 12 9 55 12 95 3 39 8 72 11 72 3 0 131 -50 286 -112z m-3617 -28 c53
-441 126 -1010 192 -1490 55 -397 65 -491 55 -507 -12 -19 -136 -65 -146 -55
-5 5 -19 75 -33 157 -36 216 -32 203 -73 223 l-37 17 -36 256 c-52 358 -106
764 -120 894 l-12 110 31 49 c39 61 40 94 12 285 -11 74 -18 136 -16 138 11
12 98 31 131 30 l40 -2 12 -105z m1031 -15 c51 -119 53 -127 47 -187 -4 -35
-8 -151 -9 -258 l-2 -195 -55 -27 c-66 -31 -146 -115 -154 -161 -4 -18 -5 -81
-3 -140 2 -59 1 -107 -2 -107 -3 0 -17 57 -32 128 -168 796 -211 1012 -204
1020 4 4 309 49 341 51 16 1 30 -22 73 -124z m6476 7 c3 -5 6 -57 7 -117 l2
-110 -138 -23 c-76 -12 -140 -20 -143 -17 -7 7 -27 243 -21 249 5 5 177 23
241 25 26 0 49 -3 52 -7z m-7705 -227 c0 -26 -7 -49 -20 -65 l-20 -25 6 75 c3
41 9 91 12 110 l6 35 8 -45 c4 -25 8 -63 8 -85z m7183 -153 c17 -2 28 -11 31
-25 3 -12 9 -113 13 -225 l7 -203 -31 -62 c-17 -34 -49 -133 -71 -219 -42
-162 -58 -201 -179 -423 -155 -288 -268 -424 -409 -497 -68 -36 -205 -75 -423
-122 -63 -14 -205 -46 -315 -71 -110 -25 -272 -61 -360 -81 -88 -19 -268 -59
-400 -89 -132 -29 -276 -61 -320 -70 -44 -9 -141 -29 -215 -46 -156 -35 -243
-54 -500 -108 -899 -191 -896 -190 -1062 -308 l-46 -34 -11 51 c-14 66 -14 85
2 98 10 9 169 47 267 65 14 2 86 18 160 35 135 30 484 108 550 122 132 29 468
104 890 200 173 40 267 61 330 75 36 7 146 32 245 55 99 22 218 49 265 60 261
59 327 75 445 107 72 19 150 43 174 54 61 27 123 79 159 136 25 39 222 462
222 477 0 2 19 44 41 93 50 105 243 558 376 878 53 127 103 244 112 260 16 30
16 29 21 -75 5 -105 5 -105 32 -108z m-5740 93 c24 -9 192 -76 373 -149 l330
-131 3 -48 3 -47 -408 2 -408 3 -3 195 c-1 107 0 205 3 218 l6 23 29 -24 c15
-13 48 -32 72 -42z m6278 -59 l0 -64 -87 -12 c-49 -7 -108 -16 -133 -20 -25
-5 -48 -6 -52 -2 -11 11 -13 115 -3 119 19 6 230 41 253 42 21 1 22 -3 22 -63z
m10 -184 l0 -68 -107 -17 c-60 -10 -120 -20 -135 -23 -26 -6 -28 -4 -28 23 0
17 -3 50 -6 74 l-6 44 133 21 c74 11 137 19 142 17 4 -2 7 -34 7 -71z m-5438
-101 c179 -70 401 -162 447 -185 37 -19 52 -33 59 -58 7 -20 13 -340 17 -833
4 -440 9 -803 12 -807 11 -19 -13 -5 -50 28 -22 20 -69 50 -106 68 -56 26 -77
31 -143 31 l-77 0 -3 145 c-2 80 -5 318 -7 530 -1 212 -4 403 -6 425 -2 22 -4
140 -4 263 l-1 223 -45 48 c-38 41 -96 76 -157 95 -11 3 -18 15 -18 31 0 14 2
25 4 25 3 0 38 -13 78 -29z m5438 -131 c0 -116 -1 -120 -19 -110 -26 13 -97
13 -161 -1 -29 -6 -56 -7 -60 -3 -5 5 -12 50 -15 100 l-7 91 93 16 c52 9 110
18 129 20 19 2 36 5 38 5 1 1 2 -52 2 -118z m-5450 20 c22 -11 40 -25 40 -30
0 -6 -103 -10 -277 -10 -153 0 -416 -3 -585 -7 -170 -3 -308 -4 -308 0 0 3 19
19 42 36 l42 31 503 0 c486 0 505 -1 543 -20z m-445 -82 c2 -7 6 -224 9 -483
3 -258 9 -635 13 -837 l6 -368 -32 0 -31 0 0 238 c0 227 -4 557 -15 1168 -3
154 -2 284 2 287 11 12 43 8 48 -5z m96 -423 c4 -236 9 -618 12 -847 l5 -418
-29 0 -29 0 -1 283 c0 155 -2 289 -3 297 -2 8 -6 264 -10 568 l-7 553 28 -3
28 -3 6 -430z m83 248 c3 -104 9 -486 12 -850 l7 -663 -27 0 -26 0 -1 148 c0
81 -2 174 -4 207 -2 33 -6 349 -10 703 l-6 642 24 0 24 0 7 -187z m90 135 c3
-29 8 -412 11 -850 l6 -798 -25 0 c-24 0 -26 4 -27 43 -1 23 -3 53 -4 67 -2
14 -6 377 -10 808 l-8 782 26 0 c24 0 26 -4 31 -52z m91 -770 c5 -453 8 -834
9 -848 0 -25 -28 -40 -44 -23 -5 4 -12 387 -16 851 l-7 842 25 0 25 0 8 -822z
m67 725 c2 -54 5 -256 6 -449 2 -194 5 -361 7 -373 2 -12 5 -192 6 -399 1
-377 1 -377 -20 -380 -19 -3 -21 2 -22 40 0 24 -2 79 -4 123 -2 44 -6 407 -10
808 -6 721 -6 727 14 727 18 0 20 -8 23 -97z m69 -443 c4 -294 10 -676 14
-848 7 -302 6 -314 -12 -310 -17 3 -18 26 -24 463 -4 253 -9 635 -13 848 -6
366 -5 388 12 385 16 -3 17 -40 23 -538z m48 -369 c0 -343 -1 -622 -3 -620 -2
2 -7 310 -10 684 -4 374 -9 712 -12 752 -3 40 -2 78 3 85 14 22 20 -249 22
-901z m-1219 847 c0 -29 2 -116 5 -193 11 -328 27 -1434 20 -1445 -4 -6 -11
-8 -16 -3 -4 4 -13 337 -19 738 -12 910 -12 955 0 955 6 0 10 -24 10 -52z m73
20 c3 -18 6 -186 7 -373 1 -187 3 -351 5 -365 1 -14 4 -228 6 -475 4 -422 3
-450 -13 -453 -17 -3 -18 11 -19 170 -1 95 -3 184 -4 198 -1 14 -6 268 -9 565
-4 297 -9 586 -12 643 -3 56 -2 107 1 112 13 21 33 9 38 -22z m78 -190 c0
-123 2 -234 3 -248 2 -14 7 -296 11 -627 l7 -603 -21 0 c-20 0 -21 5 -22 138
-1 75 -3 148 -4 161 -1 13 -6 333 -10 712 l-7 689 21 0 c21 0 21 -3 22 -222z
m80 -10 c0 -128 2 -253 4 -278 2 -25 6 -303 10 -617 6 -568 6 -573 -14 -573
-11 0 -22 3 -24 8 -3 4 -7 261 -11 572 -3 311 -9 690 -12 843 l-7 277 27 0 26
0 1 -232z m90 70 c0 -90 2 -190 4 -223 2 -33 6 -340 10 -682 l6 -623 -29 0
c-18 0 -29 5 -29 13 3 28 -14 1258 -19 1460 l-6 217 31 0 31 0 1 -162z m90
-55 c1 -120 3 -227 4 -238 1 -11 5 -292 9 -624 8 -634 9 -625 -35 -614 -18 5
-19 20 -19 317 0 171 -2 383 -5 471 -3 88 -7 328 -10 533 l-5 372 30 0 30 0 1
-217z m90 75 c0 -79 2 -154 3 -168 2 -14 7 -330 11 -702 l7 -678 -30 0 -29 0
-7 558 c-3 306 -9 686 -13 845 l-6 287 32 0 31 0 1 -142z m90 -70 c0 -117 2
-220 3 -228 2 -8 7 -293 10 -632 l8 -618 -31 0 -31 0 0 228 c0 125 -2 333 -5
462 -3 129 -7 407 -10 618 l-5 382 30 0 30 0 1 -212z m5545 96 c11 -43 -70
-392 -97 -419 -6 -6 -18 0 -34 16 l-25 24 24 80 c13 44 33 116 45 160 33 120
51 165 67 165 7 0 17 -12 20 -26z m414 7 c5 -11 10 -37 10 -58 l0 -38 -96 -15
-96 -16 -19 25 c-11 14 -19 39 -19 62 0 38 0 38 48 44 26 4 52 8 57 10 6 2 31
4 57 4 37 1 50 -3 58 -18z m-274 -134 c133 -138 194 -258 210 -413 7 -67 -2
-117 -103 -574 -183 -830 -283 -1171 -574 -1950 -297 -793 -513 -1214 -741
-1440 -148 -148 -304 -247 -505 -323 -491 -186 -1112 -305 -1889 -362 -271
-20 -791 -24 -894 -6 -421 71 -682 304 -1107 986 -169 271 -191 310 -297 523
-115 230 -136 287 -136 377 0 105 13 117 388 388 62 45 137 100 166 122 30 22
92 67 138 100 134 95 437 314 513 370 444 328 487 357 562 385 74 28 259 70
763 175 118 25 265 56 325 70 61 14 142 32 180 39 39 8 187 40 330 71 143 32
278 61 300 66 22 4 90 20 150 34 61 14 151 34 200 45 50 10 180 40 290 65 110
25 300 68 422 95 355 80 401 94 511 164 115 72 240 242 397 536 48 91 90 167
92 169 2 3 15 -7 29 -21 l26 -25 -25 -54 c-50 -109 -205 -389 -250 -452 -104
-145 -202 -229 -313 -267 -30 -11 -128 -35 -217 -55 -89 -19 -220 -49 -292
-66 -71 -16 -179 -41 -240 -54 -60 -13 -200 -45 -310 -70 -216 -50 -515 -116
-770 -170 -379 -80 -1248 -267 -1334 -286 -100 -22 -221 -70 -290 -113 -35
-23 -108 -77 -291 -216 -52 -40 -290 -215 -414 -306 -60 -43 -161 -117 -225
-164 -64 -47 -233 -171 -375 -275 -323 -236 -336 -248 -336 -305 0 -68 111
-307 325 -701 172 -315 342 -557 494 -702 228 -217 485 -313 926 -346 398 -29
1145 49 1801 189 343 73 472 113 674 207 384 180 613 439 872 989 325 689 625
1634 818 2574 37 178 36 239 -5 367 -30 95 -68 162 -130 231 l-48 53 26 82
c29 92 52 183 61 242 12 74 18 95 25 95 5 0 48 -42 97 -93z m275 -22 c6 -5 -8
-166 -17 -208 -5 -25 -9 -20 -50 60 -25 48 -52 95 -61 105 -9 10 -14 21 -11
24 11 10 131 27 139 19z m-1255 -526 c-104 -228 -128 -271 -178 -315 -79 -69
-218 -107 -1188 -324 -102 -23 -322 -72 -490 -110 -475 -107 -552 -124 -920
-205 -190 -42 -436 -96 -548 -121 -111 -25 -208 -44 -215 -41 -26 8 45 38 173
72 278 73 332 85 605 145 154 34 345 77 425 96 80 19 165 39 190 45 25 5 124
28 220 50 96 22 238 53 315 70 77 16 178 39 225 50 47 10 123 27 170 38 113
25 491 115 662 157 311 77 337 99 460 400 61 149 64 155 98 164 19 6 46 17 60
24 14 8 26 13 27 12 2 -1 -39 -95 -91 -207z m856 69 c81 -136 110 -277 83
-409 -60 -298 -181 -802 -259 -1076 -206 -724 -529 -1542 -751 -1907 -61 -100
-195 -289 -202 -283 -1 2 16 59 38 127 178 559 308 1151 390 1769 61 463 77
626 89 891 6 124 13 239 16 255 3 21 20 41 54 67 101 77 219 249 356 522 l86
168 30 -28 c16 -16 48 -59 70 -96z m-7238 15 c3 -16 10 -57 15 -91 12 -75 22
-89 67 -98 18 -3 35 -13 38 -23 7 -26 22 -106 36 -201 5 -36 13 -82 16 -102
l6 -37 -53 14 c-76 20 -95 44 -123 155 -27 108 -56 269 -56 313 0 31 27 97 40
97 5 0 11 -12 14 -27z m1053 -505 c-1 -51 -3 -12 -3 87 0 99 2 141 3 93 2 -48
2 -129 0 -180z m-807 -70 c0 -19 -2 -20 -10 -8 -13 19 -13 30 0 30 6 0 10 -10
10 -22z m180 -68 c0 -20 61 -418 86 -560 63 -365 172 -618 524 -1218 23 -40
41 -74 39 -76 -2 -1 -34 -19 -70 -39 l-67 -35 -37 51 c-38 54 -94 147 -138
230 -16 30 -51 70 -91 103 -90 74 -123 122 -215 309 -106 216 -156 375 -215
685 -34 174 -33 191 4 233 34 39 35 46 18 180 -14 115 -13 117 70 133 75 15
92 16 92 4z m6175 -307 c-90 -898 -188 -1509 -330 -2068 -72 -285 -116 -433
-182 -623 l-46 -134 -66 -55 c-149 -123 -364 -237 -591 -313 -291 -98 -920
-215 -1420 -265 -922 -92 -1393 -4 -1715 320 -197 197 -400 517 -663 1043
-104 209 -117 240 -120 295 -4 59 -2 63 30 93 18 17 123 96 233 176 300 216
561 408 905 663 170 127 338 251 374 277 92 68 229 134 327 157 46 12 172 39
279 62 216 45 642 136 820 175 63 13 302 65 530 114 228 49 485 105 570 125
85 19 236 54 335 76 99 22 207 46 240 54 243 56 298 69 363 86 41 11 90 28
110 38 l37 19 3 -29 c2 -16 -8 -144 -23 -286z m-4298 90 c-3 -10 -5 -4 -5 12
0 17 2 24 5 18 2 -7 2 -21 0 -30z m5354 -348 c-25 -631 -31 -716 -54 -747 -22
-28 -163 -106 -173 -96 -3 4 -5 114 -4 246 l1 241 68 208 c38 114 88 271 111
348 23 77 44 147 48 155 13 30 14 -71 3 -355z m-5070 270 c62 -32 123 -87 150
-137 8 -14 15 -84 19 -183 4 -88 12 -172 18 -187 11 -26 8 -29 -84 -98 -52
-39 -106 -75 -121 -81 -46 -17 -312 -13 -379 6 -135 38 -189 96 -224 241 -12
49 -33 121 -46 161 -13 39 -24 73 -24 76 0 2 60 7 133 10 72 3 139 8 147 11
13 5 15 -4 12 -67 -6 -122 45 -210 152 -258 52 -23 162 -25 214 -3 120 50 178
197 129 326 -34 88 -136 152 -244 153 l-63 0 0 32 c0 25 5 33 23 36 46 10 124
-6 188 -38z m-347 -86 c-3 -6 -23 -18 -43 -26 -44 -19 -450 -36 -766 -31 -188
3 -213 5 -242 23 -18 10 -33 23 -33 27 0 4 163 9 363 11 199 1 444 3 545 5
131 1 181 -1 176 -9z m312 -19 c74 -42 99 -86 99 -176 0 -93 -31 -144 -111
-181 -50 -23 -59 -24 -121 -14 -115 18 -183 94 -183 207 0 74 22 111 94 161
42 29 56 33 110 33 49 0 71 -6 112 -30z m-697 -134 c12 -24 33 -95 47 -157 14
-63 36 -137 50 -166 33 -69 96 -123 175 -151 79 -27 227 -46 297 -37 28 4 52
3 52 -2 -1 -7 -213 -164 -335 -248 -24 -16 -96 -68 -160 -115 -138 -101 -186
-133 -190 -128 -27 30 -212 445 -322 723 -52 132 -104 257 -114 277 l-19 38
242 3 c134 1 246 3 250 5 3 1 16 -18 27 -42z m-1284 -1001 c28 -27 67 -64 86
-81 22 -20 83 -121 177 -295 144 -267 308 -542 363 -612 l31 -38 -29 7 c-74
19 -222 148 -312 273 -17 24 -40 50 -51 58 -21 15 -53 79 -157 318 -120 274
-202 480 -181 450 12 -16 45 -52 73 -80z m695 -451 c-15 -39 -12 -154 6 -215
27 -91 293 -607 366 -711 11 -16 15 -28 10 -28 -16 0 -91 70 -113 108 -13 20
-60 96 -104 167 -216 343 -385 619 -385 629 0 3 21 6 48 6 59 1 120 22 139 49
21 31 45 28 33 -5z m-243 -121 c89 -137 143 -228 143 -241 0 -33 -25 -14 -66
50 -53 82 -164 279 -164 291 0 23 24 -5 87 -100z m468 -774 c47 -70 83 -100
168 -139 62 -28 64 -31 167 -182 123 -182 202 -287 289 -387 47 -54 60 -75 50
-81 -42 -27 -419 -24 -542 4 -102 23 -120 34 -129 81 -14 75 -68 580 -70 660
-2 75 4 105 20 105 4 0 25 -28 47 -61z m185 -826 c106 -20 356 -22 459 -4 69
12 74 12 93 -6 19 -20 19 -20 -64 -38 -46 -9 -147 -19 -225 -22 -124 -5 -155
-3 -239 17 -75 17 -103 28 -127 52 -31 29 -31 29 -7 23 14 -3 63 -13 110 -22z
m3234 -285 c-26 -454 -44 -658 -59 -685 -15 -27 -15 -26 -10 42 3 39 9 176 15
305 18 431 19 440 41 440 18 0 19 -6 13 -102z m-71 20 c-1 -40 -10 -228 -19
-418 -9 -189 -18 -348 -20 -352 -3 -4 -14 -13 -25 -19 -20 -10 -20 -8 -15 98
10 196 16 396 17 571 2 182 4 191 50 192 14 0 15 -11 12 -72z m-93 -85 c0 -76
-5 -271 -10 -433 -8 -261 -11 -296 -27 -307 -9 -7 -21 -13 -25 -13 -9 0 -9
494 0 753 l4 137 29 0 29 0 0 -137z m-93 -90 c-4 -120 -7 -322 -7 -449 l0
-232 -24 -6 c-13 -3 -32 -9 -42 -13 -16 -6 -17 12 -11 343 4 192 7 397 7 456
l0 107 28 4 c15 2 33 5 41 6 12 1 13 -33 8 -216z m-117 155 c2 -172 -2 -863
-5 -866 -2 -2 -21 -6 -43 -9 l-40 -5 -6 258 c-3 143 -7 347 -9 454 l-2 195 35
6 c70 13 70 13 70 -33z m-140 -60 c0 -46 2 -132 5 -193 2 -60 7 -228 10 -372
l5 -263 -28 0 -29 0 -7 258 c-3 141 -9 343 -12 449 -6 181 -6 191 12 196 43
11 44 10 44 -75z m-89 -35 c1 -60 2 -130 4 -158 2 -27 6 -181 9 -341 l6 -292
-27 -3 c-16 -2 -38 -3 -50 -1 -23 3 -23 4 -23 200 0 108 -3 308 -7 444 l-6
247 39 4 c21 2 42 4 47 5 4 1 7 -46 8 -105z m-121 -30 c0 -65 3 -263 7 -440
l6 -323 -36 0 c-20 0 -38 4 -41 8 -7 12 -15 133 -41 612 -3 52 -8 130 -11 172
-7 86 -8 83 79 87 l37 1 0 -117z m-146 25 c3 -46 11 -177 17 -293 5 -115 14
-271 19 -345 5 -74 8 -136 6 -137 -1 -1 -12 0 -24 3 -25 7 -29 24 -37 179 -10
193 -35 579 -40 622 -4 33 -1 43 13 46 38 10 40 7 46 -75z m-90 35 c9 -64 50
-783 44 -788 -8 -8 -98 26 -98 37 0 5 -9 125 -21 266 -26 332 -36 462 -35 487
1 19 15 24 93 34 6 0 14 -16 17 -36z m-217 -238 c12 -137 25 -293 28 -345 l7
-95 -20 29 c-11 16 -25 56 -32 90 -14 76 -59 558 -53 569 3 5 15 7 26 5 21 -3
23 -13 44 -253z m77 183 c34 -403 55 -682 51 -686 -2 -3 -15 3 -29 11 -30 20
-28 11 -61 403 -31 375 -32 344 4 344 29 0 29 0 35 -72z"/>
<path d="M13483 14592 c-33 -5 -53 -40 -53 -94 0 -78 3 -79 301 -76 l254 3 13
28 c19 40 7 103 -24 123 -19 13 -64 16 -246 18 -123 1 -233 0 -245 -2z m471
-38 c12 -4 16 -20 16 -55 l0 -49 -252 2 -253 3 -3 38 c-6 67 -6 67 248 67 126
0 235 -3 244 -6z"/>
<path d="M13470 14343 c-35 -24 -40 -33 -40 -75 0 -25 7 -45 20 -58 18 -18 34
-20 173 -21 400 -4 387 -7 387 75 0 90 0 90 -279 94 -210 2 -239 1 -261 -15z
m500 -29 c6 -6 10 -29 8 -50 l-3 -39 -249 -3 c-268 -3 -266 -3 -266 49 0 30
16 47 54 57 41 11 443 -1 456 -14z"/>
<path d="M13463 13984 c-29 -22 -33 -31 -33 -74 0 -41 4 -52 26 -69 25 -20 39
-21 268 -21 288 0 286 -1 286 89 0 96 2 95 -279 99 l-236 2 -32 -26z m501 -17
c13 -10 17 -24 14 -62 l-3 -50 -238 -3 c-152 -1 -245 1 -257 8 -15 8 -20 21
-20 50 0 65 17 69 271 70 160 0 220 -3 233 -13z"/>
<path d="M13468 13562 c-33 -20 -45 -67 -32 -121 16 -64 45 -71 289 -71 253 0
275 6 287 80 9 52 3 77 -25 108 -20 22 -24 22 -256 22 -205 0 -240 -3 -263
-18z m510 -45 c8 -16 11 -40 7 -58 -12 -53 -29 -57 -263 -57 -195 0 -214 2
-237 20 -19 15 -25 29 -25 57 0 74 19 79 315 71 l190 -5 13 -28z"/>
<path d="M13535 13130 c-27 -3 -60 -11 -72 -18 -42 -23 -43 -131 -2 -168 19
-17 41 -19 243 -21 293 -3 306 1 306 111 0 86 -14 96 -147 97 -60 1 -146 2
-193 3 -47 0 -107 -1 -135 -4z m433 -42 c7 -7 12 -33 12 -58 0 -25 -5 -51 -12
-58 -9 -9 -78 -12 -250 -12 l-238 0 -10 26 c-17 43 -12 81 12 98 19 13 60 16
248 16 162 0 229 -3 238 -12z"/>
<path d="M13453 12654 c-22 -22 -25 -32 -20 -71 3 -28 13 -54 26 -67 21 -20
32 -21 254 -24 214 -2 234 -1 263 17 20 12 33 30 38 51 10 54 7 70 -19 95
l-24 25 -246 0 -246 0 -26 -26z m524 -19 c5 -8 7 -33 5 -55 -3 -33 -9 -43 -30
-51 -36 -14 -458 -7 -472 7 -6 6 -14 28 -17 49 -10 63 -3 65 268 65 200 0 239
-2 246 -15z"/>
<path d="M13462 12264 c-18 -12 -22 -25 -22 -69 0 -46 4 -56 26 -74 25 -20 39
-21 259 -21 220 0 234 1 259 21 22 18 26 28 26 74 0 85 0 85 -285 85 -202 0
-244 -3 -263 -16z m516 -64 c3 -33 -1 -47 -14 -57 -25 -18 -464 -19 -482 -1
-13 13 -17 90 -5 102 4 3 117 5 252 4 l246 -3 3 -45z"/>
<path d="M12882 12918 c-15 -15 -16 -53 -2 -79 7 -13 21 -19 44 -19 43 0 64
38 45 82 -9 22 -18 28 -43 28 -18 0 -37 -5 -44 -12z"/>
<path d="M12730 12790 c-20 -49 -1 -80 49 -80 33 0 40 4 51 29 17 42 -9 81
-55 81 -27 0 -35 -5 -45 -30z"/>
<path d="M12873 12708 c-7 -15 -7 -33 -1 -50 9 -24 16 -28 47 -28 30 0 40 5
51 25 11 21 11 29 0 50 -18 34 -82 36 -97 3z"/>
<path d="M12575 12680 c-13 -25 -13 -34 -3 -52 17 -31 29 -38 53 -33 11 2 25
4 31 4 6 1 16 12 22 26 10 21 9 32 -3 55 -13 25 -22 30 -50 30 -28 0 -37 -5
-50 -30z"/>
<path d="M12736 12608 c-19 -27 -21 -59 -4 -76 21 -21 75 -15 92 10 21 29 20
40 -4 66 -27 28 -65 28 -84 0z"/>
<path d="M12454 12602 c-33 -5 -47 -46 -29 -82 13 -24 22 -30 49 -30 28 0 36
5 46 30 22 53 -9 91 -66 82z"/>
<path d="M12872 12515 c-31 -68 63 -115 98 -50 11 21 11 29 0 50 -11 20 -21
25 -50 25 -30 0 -39 -5 -48 -25z"/>
<path d="M12580 12501 c-14 -26 -13 -64 2 -79 22 -22 76 -15 93 12 15 22 15
27 0 55 -13 26 -22 31 -50 31 -24 0 -37 -6 -45 -19z"/>
<path d="M12728 12415 c-8 -18 -9 -35 -2 -53 8 -22 16 -28 46 -30 32 -3 39 1
51 25 13 24 13 31 1 55 -12 23 -21 28 -49 28 -28 0 -38 -5 -47 -25z"/>
<path d="M12420 12379 c-19 -46 2 -79 50 -79 47 0 68 36 49 82 -10 24 -17 28
-49 28 -32 0 -39 -4 -50 -31z"/>
<path d="M12883 12348 c-18 -24 -22 -48 -13 -73 8 -21 16 -25 48 -25 30 0 41
5 51 24 19 35 -9 86 -48 86 -16 0 -33 -6 -38 -12z"/>
<path d="M12570 12300 c-10 -25 -10 -34 4 -55 31 -47 105 -26 105 30 0 34 -23
55 -61 55 -30 0 -38 -5 -48 -30z"/>
<path d="M12749 12254 c-29 -9 -41 -51 -23 -85 13 -25 20 -30 47 -27 22 2 36
11 47 31 13 24 13 30 0 55 -15 26 -38 35 -71 26z"/>
<path d="M12420 12201 c-24 -46 0 -91 48 -91 22 0 36 7 47 24 15 22 15 27 0
55 -13 26 -22 31 -50 31 -24 0 -37 -6 -45 -19z"/>
<path d="M12871 12146 c-10 -17 -11 -32 -4 -53 8 -24 15 -28 47 -28 30 0 41 5
53 27 15 24 15 28 0 52 -24 36 -78 37 -96 2z"/>
<path d="M12570 12121 c-24 -46 2 -91 53 -91 19 0 31 8 42 31 15 28 15 33 0
55 -20 31 -79 34 -95 5z"/>
<path d="M12726 12048 c-9 -12 -16 -29 -16 -38 0 -57 74 -81 105 -34 16 25 16
29 1 60 -13 27 -22 34 -45 34 -20 0 -35 -8 -45 -22z"/>
<path d="M12414 12008 c-32 -61 43 -121 89 -70 36 39 8 101 -44 100 -23 -1
-34 -8 -45 -30z"/>
<path d="M12876 11964 c-19 -19 -21 -54 -3 -78 9 -12 23 -17 47 -14 29 2 36 8
44 36 7 26 5 36 -9 52 -22 24 -58 26 -79 4z"/>
<path d="M12565 11926 c-15 -22 -15 -27 0 -55 20 -41 64 -43 94 -5 19 24 19
28 5 55 -20 39 -75 42 -99 5z"/>
<path d="M12292 11878 c-29 -29 -3 -78 42 -78 24 0 38 34 26 64 -10 28 -47 35
-68 14z"/>
<path d="M12719 11843 c-17 -45 -1 -77 42 -81 29 -2 39 2 53 23 14 22 15 29 4
53 -10 21 -21 28 -51 30 -33 3 -38 0 -48 -25z"/>
<path d="M12423 11828 c-20 -26 -23 -50 -9 -77 20 -38 71 -37 94 2 15 25 15
30 2 55 -17 30 -69 42 -87 20z"/>
<path d="M12865 11760 c-15 -29 -15 -34 0 -56 22 -34 69 -33 92 2 15 24 15 28
0 52 -10 18 -26 28 -46 30 -25 3 -33 -2 -46 -28z"/>
<path d="M12563 11731 c-16 -44 3 -75 48 -79 29 -2 37 1 48 22 11 20 12 31 1
55 -11 27 -18 31 -49 31 -31 0 -38 -4 -48 -29z"/>
<path d="M12268 11695 c-8 -18 -9 -35 -2 -53 7 -22 17 -28 45 -30 30 -3 37 1
48 24 20 44 -2 84 -45 84 -27 0 -37 -5 -46 -25z"/>
<path d="M12714 11656 c-13 -22 -14 -29 -2 -53 10 -22 21 -29 49 -31 32 -3 38
0 49 28 11 25 10 35 0 56 -19 34 -73 34 -96 0z"/>
<path d="M12420 11635 c-16 -19 -18 -71 -3 -86 5 -5 25 -11 43 -12 28 -2 37 3
49 26 14 24 14 30 1 55 -19 32 -69 42 -90 17z"/>
<path d="M12859 11566 c-17 -37 7 -80 48 -84 27 -3 34 2 47 26 12 24 13 34 3
56 -10 21 -19 26 -50 26 -30 0 -40 -5 -48 -24z"/>
<path d="M12566 11558 c-2 -7 -7 -21 -10 -31 -3 -9 0 -29 6 -43 16 -35 76 -31
97 7 13 24 13 29 -2 53 -13 20 -26 26 -53 26 -19 0 -36 -6 -38 -12z"/>
<path d="M12266 11505 c-15 -23 -15 -28 -1 -55 27 -53 104 -34 104 25 0 55
-73 77 -103 30z"/>
<path d="M12714 11464 c-4 -15 -3 -39 2 -53 8 -21 16 -26 42 -26 44 0 72 40
54 79 -10 22 -18 26 -52 26 -35 0 -40 -3 -46 -26z"/>
<path d="M12410 11435 c-22 -41 -3 -79 41 -83 29 -2 39 2 53 23 15 23 15 28 1
55 -21 40 -75 43 -95 5z"/>
<path d="M12859 11376 c-18 -39 1 -80 39 -84 40 -4 67 32 57 78 -6 27 -10 30
-46 30 -32 0 -42 -5 -50 -24z"/>
<path d="M12559 11353 c-7 -19 -6 -35 2 -55 9 -23 18 -28 45 -28 27 0 36 6 49
30 14 27 14 32 -1 55 -24 37 -80 36 -95 -2z"/>
<path d="M12708 11275 c-8 -18 -8 -32 2 -55 10 -25 18 -30 45 -30 46 0 72 39
55 81 -11 25 -18 29 -51 29 -32 0 -42 -5 -51 -25z"/>
<path d="M12867 11202 c-20 -22 -21 -33 -5 -67 17 -38 71 -36 91 4 29 59 -42
111 -86 63z"/>
<path d="M14516 12829 c-18 -30 -18 -32 1 -58 32 -43 84 -38 103 10 29 70 -65
114 -104 48z"/>
<path d="M14666 12685 c-42 -42 -18 -105 39 -105 27 0 35 6 48 32 14 29 14 33
-6 60 -23 31 -57 37 -81 13z"/>
<path d="M14516 12628 c-31 -43 -11 -88 42 -94 27 -3 34 1 47 26 13 24 13 35
4 53 -23 43 -68 51 -93 15z"/>
<path d="M14814 12542 c-50 -33 -27 -112 33 -112 26 0 36 6 48 30 23 44 -3 90
-50 90 -11 0 -25 -4 -31 -8z"/>
<path d="M14652 12470 c-27 -44 -3 -90 48 -90 36 0 59 22 59 55 0 52 -80 78
-107 35z"/>
<path d="M14525 12433 c-40 -39 -18 -103 35 -103 69 0 76 102 8 112 -17 3 -35
-1 -43 -9z"/>
<path d="M14961 12376 c-35 -44 -12 -106 38 -106 43 0 66 40 50 85 -11 30 -17
34 -46 33 -18 -1 -37 -6 -42 -12z"/>
<path d="M14799 12319 c-19 -47 4 -84 51 -84 47 0 70 37 51 84 -12 27 -18 31
-51 31 -33 0 -39 -4 -51 -31z"/>
<path d="M14651 12252 c-19 -46 2 -82 49 -82 32 0 39 4 50 31 20 46 -1 79 -50
79 -32 0 -39 -4 -49 -28z"/>
<path d="M14511 12202 c-19 -45 2 -82 45 -82 47 0 72 37 54 80 -11 26 -18 30
-50 30 -32 0 -39 -4 -49 -28z"/>
<path d="M14956 12175 c-9 -13 -16 -28 -16 -33 0 -20 41 -60 58 -57 9 2 24 4
33 4 9 1 22 14 29 30 27 66 -65 116 -104 56z"/>
<path d="M14806 12113 c-12 -24 -12 -31 1 -56 12 -24 19 -28 49 -25 48 4 75
44 54 82 -11 21 -21 26 -51 26 -32 0 -41 -5 -53 -27z"/>
<path d="M14655 12051 c-14 -28 -14 -34 -1 -59 11 -22 22 -29 48 -30 27 -1 36
4 51 30 18 31 18 32 -1 57 -12 16 -31 27 -50 29 -26 3 -33 -2 -47 -27z"/>
<path d="M14509 11993 c-7 -19 -6 -35 2 -55 9 -23 18 -28 45 -28 27 0 36 6 48
29 12 23 13 33 3 55 -10 21 -19 26 -50 26 -32 0 -39 -4 -48 -27z"/>
<path d="M14982 12009 c-27 -10 -38 -53 -22 -85 11 -19 21 -24 50 -24 32 0 39
4 50 31 23 55 -21 99 -78 78z"/>
<path d="M14805 11910 c-14 -27 -14 -32 1 -55 24 -36 84 -36 101 1 10 22 9 32
-3 55 -12 23 -21 29 -49 29 -28 0 -37 -5 -50 -30z"/>
<path d="M14655 11843 c-16 -24 -16 -30 -4 -52 21 -37 81 -42 104 -8 14 22 14
27 -2 56 -24 42 -72 44 -98 4z"/>
<path d="M14965 11791 c-14 -28 -14 -34 0 -61 13 -24 22 -30 49 -30 28 0 36 5
47 31 18 44 -4 83 -48 87 -27 3 -34 -2 -48 -27z"/>
<path d="M14511 11782 c-19 -46 2 -82 49 -82 30 0 39 5 48 25 7 14 12 32 12
39 0 22 -35 46 -67 46 -24 0 -33 -6 -42 -28z"/>
<path d="M14816 11728 c-19 -27 -20 -39 -4 -73 9 -20 18 -25 48 -25 33 0 39 4
50 31 11 27 11 35 -3 58 -21 36 -69 41 -91 9z"/>
<path d="M14656 11642 c-13 -26 -13 -32 4 -59 24 -39 74 -41 96 -3 18 34 17
43 -6 68 -31 32 -76 29 -94 -6z"/>
<path d="M14969 11604 c-5 -15 -12 -30 -14 -34 -3 -4 5 -20 16 -34 16 -20 27
-25 47 -22 15 2 30 5 33 5 4 1 12 14 19 30 17 43 -9 81 -56 81 -28 0 -36 -5
-45 -26z"/>
<path d="M14516 11575 c-15 -23 -16 -31 -6 -56 11 -25 18 -29 51 -29 34 0 41
4 50 28 25 64 -58 114 -95 57z"/>
<path d="M14852 11552 c-32 -5 -54 -51 -39 -83 10 -19 20 -24 52 -24 32 0 42
5 52 24 9 20 9 30 -2 52 -16 30 -29 37 -63 31z"/>
<path d="M14660 11439 c-11 -27 -11 -35 3 -58 23 -37 75 -37 97 2 13 24 13 30
0 55 -12 20 -24 28 -51 30 -32 3 -38 0 -49 -29z"/>
<path d="M14974 11419 c-13 -26 -13 -36 -3 -61 11 -26 16 -29 53 -26 36 3 41
6 50 35 20 73 -65 118 -100 52z"/>
<path d="M14515 11363 c-16 -24 -16 -28 -2 -52 11 -19 26 -27 51 -29 29 -3 37
1 49 25 13 24 13 31 1 55 -20 39 -74 40 -99 1z"/>
<path d="M14822 11350 c-28 -45 -3 -90 50 -90 28 0 37 5 46 25 16 35 15 49 -6
68 -26 24 -74 22 -90 -3z"/>
<path d="M14666 11261 c-14 -26 -14 -32 0 -60 13 -26 21 -31 50 -31 28 0 37 5
46 28 14 33 11 51 -9 75 -26 28 -70 22 -87 -12z"/>
<path d="M14992 11258 c-36 -46 -14 -108 38 -108 25 0 33 7 46 34 15 31 15 35
-1 60 -19 28 -65 36 -83 14z"/>
<path d="M14516 11166 c-14 -23 -14 -27 2 -55 13 -24 24 -31 49 -31 26 0 36 6
48 31 15 28 15 33 0 55 -22 34 -76 34 -99 0z"/>
<path d="M14830 11171 c-27 -51 -4 -101 46 -101 31 0 37 4 50 35 10 25 12 41
5 54 -20 36 -84 43 -101 12z"/>
<path d="M14686 11095 c-41 -41 -18 -105 38 -105 38 0 70 45 53 76 -22 43 -63
56 -91 29z"/>
<path d="M14993 11078 c-36 -47 -14 -98 42 -98 46 0 64 33 45 80 -10 25 -18
30 -45 30 -18 0 -37 -6 -42 -12z"/>
<path d="M14852 11001 c-5 -3 -14 -16 -21 -29 -20 -37 5 -76 50 -80 32 -3 38
0 49 28 18 43 2 76 -39 82 -17 2 -34 2 -39 -1z"/>
<path d="M14525 10970 c-14 -27 -14 -33 0 -61 14 -26 21 -30 52 -27 30 2 39 8
49 35 12 28 11 34 -7 57 -29 37 -74 36 -94 -4z"/>
<path d="M14684 10876 c-15 -31 -15 -35 1 -60 26 -40 70 -36 91 8 15 31 15 35
-1 60 -26 40 -70 36 -91 -8z"/>
<path d="M15000 10890 c-41 -41 -16 -100 42 -100 30 0 38 5 48 29 9 23 9 34
-2 52 -7 13 -14 25 -14 27 -1 2 -13 5 -28 8 -17 3 -32 -2 -46 -16z"/>
<path d="M14848 10775 c-17 -38 6 -75 47 -75 43 0 64 40 40 76 -22 34 -71 33
-87 -1z"/>
<path d="M14536 10765 c-15 -23 -15 -28 -1 -56 14 -25 21 -30 48 -27 22 2 36
11 46 29 34 60 -55 112 -93 54z"/>
<path d="M15001 10694 c-24 -31 -25 -35 -9 -69 9 -20 18 -25 48 -25 30 0 39 5
48 25 17 37 15 49 -11 73 -31 29 -51 28 -76 -4z"/>
<path d="M14694 10684 c-27 -40 -9 -78 37 -82 32 -3 38 0 49 27 26 65 -49 112
-86 55z"/>
<path d="M14847 10593 c-13 -24 -13 -31 -1 -55 11 -22 22 -28 48 -28 42 0 65
36 50 78 -8 22 -16 28 -46 30 -32 3 -39 -1 -51 -25z"/>
<path d="M14540 10569 c-31 -73 58 -118 95 -49 11 20 11 29 -1 52 -12 22 -22
28 -48 28 -28 0 -36 -5 -46 -31z"/>
<path d="M15001 10502 c-17 -40 -1 -78 35 -85 38 -7 50 0 65 34 18 46 -3 79
-51 79 -32 0 -39 -4 -49 -28z"/>
<path d="M14690 10479 c-11 -26 -11 -33 6 -56 10 -14 22 -25 27 -24 4 1 18 1
31 1 17 0 27 9 36 30 18 43 -7 80 -54 80 -28 0 -36 -5 -46 -31z"/>
<path d="M14873 10430 c-28 -12 -38 -45 -23 -81 10 -24 18 -29 46 -29 27 0 36
6 49 31 17 32 13 46 -24 77 -17 14 -18 14 -48 2z"/>
<path d="M15012 10320 c-25 -41 -7 -86 39 -94 31 -5 41 1 56 34 17 40 -8 80
-50 80 -21 0 -36 -7 -45 -20z"/>
<path d="M9115 7076 c-38 -13 -78 -27 -87 -31 -13 -5 -18 -2 -18 11 0 16 -2
16 -22 -3 -13 -11 -61 -34 -108 -52 -80 -31 -179 -82 -345 -179 -67 -39 -273
-200 -274 -214 -1 -8 69 16 183 62 43 17 90 34 104 36 13 3 53 18 89 34 50 23
69 27 84 19 14 -7 19 -6 19 3 0 7 22 25 48 39 76 42 424 301 402 299 -3 -1
-36 -11 -75 -24z"/>
<path d="M9240 6963 c-14 -2 -62 -15 -108 -29 -66 -20 -99 -37 -166 -89 -47
-35 -126 -86 -178 -112 -99 -52 -208 -122 -323 -208 -65 -49 -105 -85 -92 -85
5 0 68 25 102 40 11 5 92 41 179 80 88 39 187 85 220 103 34 17 64 30 69 29 4
-1 52 21 107 48 83 42 117 66 193 140 l92 89 -35 -1 c-19 0 -46 -3 -60 -5z"/>
<path d="M9346 6773 c-35 -11 -51 -12 -56 -4 -19 31 -281 -93 -525 -247 -27
-18 -82 -47 -121 -66 -70 -34 -111 -66 -65 -51 35 11 24 -8 -22 -37 -23 -15
-53 -38 -66 -52 -23 -24 -21 -24 65 10 49 20 98 38 109 41 11 2 38 14 59 25
l39 21 -6 -22 -5 -22 31 19 c18 11 100 56 182 101 133 73 319 195 416 273 38
31 34 32 -35 11z"/>
<path d="M9440 6588 c-14 -6 -44 -20 -68 -32 -37 -17 -45 -18 -52 -6 -8 12
-10 12 -15 -2 -7 -18 -221 -106 -273 -112 -17 -2 -37 -8 -44 -14 -7 -5 -38
-23 -68 -39 -263 -140 -275 -147 -251 -153 23 -5 23 -6 -15 -40 -22 -20 -56
-46 -77 -59 -21 -13 -36 -25 -34 -27 2 -2 43 10 92 26 49 17 103 30 122 30 21
0 36 6 42 19 7 12 36 25 81 37 46 12 82 28 100 45 15 15 43 30 61 34 19 4 41
13 49 21 79 71 130 108 199 142 87 44 143 84 167 120 8 12 13 22 12 21 -2 0
-14 -5 -28 -11z"/>
<path d="M13318 8636 l-117 -114 44 -11 c68 -17 74 -15 146 49 76 67 69 69 84
-23 3 -21 13 -41 21 -44 9 -3 51 4 93 16 43 11 82 21 86 21 4 0 -15 -24 -44
-54 -28 -30 -51 -61 -51 -68 0 -14 53 -38 82 -38 15 0 218 207 226 229 1 5
-16 13 -38 19 -40 10 -115 0 -205 -27 -82 -25 -83 -25 -90 22 -14 87 -24 114
-50 125 -51 23 -67 14 -187 -102z"/>
<path d="M13961 8416 l-114 -114 44 -12 c24 -6 50 -13 57 -16 8 -2 45 26 82
62 76 73 76 73 84 -20 4 -45 20 -58 55 -44 14 5 54 15 88 22 l63 14 -37 -42
c-20 -22 -45 -50 -55 -60 -10 -11 -18 -22 -18 -26 0 -3 21 -14 47 -23 l47 -18
118 118 c65 65 118 121 118 124 0 4 -21 12 -47 18 -42 10 -62 8 -163 -18 -63
-15 -118 -27 -121 -25 -4 2 -10 25 -13 51 -10 73 -24 101 -58 112 -17 6 -38
11 -47 11 -9 0 -68 -51 -130 -114z"/>
<path d="M14590 8247 c-117 -126 -151 -177 -119 -177 5 0 88 -29 184 -65 95
-36 179 -65 187 -65 12 0 211 220 231 255 5 10 -2 15 -25 20 -18 4 -51 15 -73
25 -62 27 -271 100 -286 100 -8 0 -52 -42 -99 -93z m235 7 c55 -20 118 -41
140 -48 42 -13 51 -32 23 -50 -13 -8 -26 -6 -54 7 l-37 18 -56 -53 c-109 -104
-103 -101 -151 -88 l-43 12 78 78 79 79 -30 11 c-69 25 -84 33 -84 45 0 34 14
33 135 -11z"/>
<path d="M14313 8122 c11 -16 93 -41 108 -32 10 7 6 12 -16 20 -46 18 -99 25
-92 12z"/>
<path d="M15232 8081 c-29 -39 -28 -41 11 -41 17 0 65 -12 106 -27 67 -24 72
-28 50 -36 -58 -23 -259 -121 -259 -127 0 -4 17 -12 38 -19 35 -12 42 -10 147
39 61 29 124 58 141 66 31 15 81 61 73 67 -3 3 -163 63 -274 104 -6 2 -21 -10
-33 -26z"/>
<path d="M15612 7885 c-10 -22 -14 -23 -42 -13 -26 9 -35 8 -48 -6 -15 -14
-13 -17 16 -27 37 -13 37 -12 16 -45 -19 -28 -18 -29 13 -38 18 -6 25 -2 35
18 13 30 17 31 53 14 22 -10 28 -9 36 3 14 23 11 29 -21 40 -29 10 -29 11 -13
36 14 21 14 26 2 34 -23 14 -35 10 -47 -16z"/>
<path d="M14415 6080 c-27 -10 -77 -26 -110 -35 -33 -10 -67 -20 -75 -23 -13
-5 -13 -3 -1 11 8 10 12 19 10 22 -3 2 -44 -17 -93 -41 -48 -25 -95 -43 -103
-40 -9 4 -21 3 -27 -2 -6 -5 -49 -24 -96 -42 -114 -44 -166 -71 -403 -206
-202 -116 -310 -188 -357 -239 -14 -15 -59 -53 -100 -85 -41 -32 -84 -67 -94
-79 -18 -20 -10 -18 83 14 56 20 148 58 203 85 64 32 113 50 137 50 20 0 56
10 81 21 25 11 70 30 100 41 30 12 67 29 81 39 24 17 28 17 39 4 17 -21 24
-19 88 18 31 18 73 39 92 47 19 8 37 16 40 19 11 13 148 120 190 149 25 17 92
65 150 106 58 42 113 81 124 88 10 7 35 27 56 43 21 17 46 35 56 42 18 11 18
12 -1 11 -11 0 -42 -8 -70 -18z"/>
<path d="M14709 5905 c-3 -2 -70 -15 -149 -29 -203 -35 -305 -80 -454 -200
-84 -68 -115 -88 -159 -100 -55 -14 -321 -166 -464 -264 -115 -79 -335 -256
-342 -274 -2 -5 7 -3 20 5 90 57 346 142 324 107 -5 -8 -3 -11 6 -8 8 3 13 12
11 21 -4 23 77 73 148 93 59 17 158 54 175 65 6 4 61 30 124 58 63 28 126 59
140 68 31 21 124 60 163 68 15 4 30 11 33 16 4 5 13 9 21 9 31 0 145 89 274
214 74 72 139 137 143 144 7 11 -4 18 -14 7z"/>
<path d="M14775 5579 c-60 -22 -105 -24 -130 -5 -16 11 -26 11 -64 -1 -159
-49 -168 -52 -356 -159 -375 -210 -658 -373 -708 -405 l-58 -38 35 -3 36 -3
-100 -68 c-165 -114 -164 -114 120 -4 185 72 210 80 216 74 3 -3 -4 -14 -16
-25 -44 -40 0 -30 81 19 46 28 136 78 199 110 63 32 129 67 145 78 17 12 42
21 56 21 15 0 48 15 73 33 118 82 302 212 311 219 6 5 59 41 119 81 140 93
153 117 41 76z"/>
<path d="M14812 5230 c-97 -47 -104 -48 -109 -30 -7 25 -8 25 -46 -4 -36 -27
-128 -70 -227 -105 -36 -13 -93 -34 -127 -47 -34 -13 -77 -24 -96 -24 -28 0
-43 -8 -73 -40 -31 -32 -45 -40 -74 -40 -24 0 -58 -13 -101 -39 -35 -21 -125
-71 -199 -110 -74 -40 -142 -79 -150 -88 -13 -13 -12 -14 9 -11 17 2 25 -2 27
-15 3 -19 -12 -31 -166 -131 -50 -32 -89 -60 -87 -62 2 -2 82 21 178 52 121
38 185 54 209 51 29 -4 41 1 71 30 30 29 54 39 145 61 97 24 109 30 114 52 7
28 42 50 83 50 36 0 107 36 107 55 0 8 14 17 33 20 22 4 39 16 50 34 23 40
130 108 292 187 118 58 149 78 198 129 88 92 82 94 -61 25z"/>
<path d="M12126 6860 c-66 -20 -114 -99 -102 -165 9 -48 62 -100 115 -115 38
-10 48 -9 89 12 84 42 109 134 58 213 -29 45 -106 71 -160 55z m97 -41 c32
-15 57 -60 57 -104 0 -52 -53 -105 -104 -105 -91 0 -140 76 -106 164 17 47 97
70 153 45z"/>
<path d="M3783 15973 c-30 -6 -62 -48 -76 -102 -10 -36 -18 -47 -47 -59 -19
-8 -57 -32 -84 -53 -34 -27 -58 -39 -81 -39 -38 0 -87 -31 -163 -103 -29 -29
-61 -56 -70 -61 -9 -5 -21 -15 -25 -23 -13 -21 -24 -16 -37 17 -17 42 -68 104
-110 135 -59 44 -52 43 -520 70 -140 8 -284 17 -320 19 -83 6 -128 -9 -158
-54 l-24 -35 3 -2440 2 -2440 -49 -75 c-76 -113 -108 -176 -147 -280 -48 -128
-65 -240 -72 -455 -7 -215 -25 -343 -71 -526 -74 -293 -68 -105 -70 -2104 -1
-990 2 -1852 7 -1915 11 -163 39 -279 128 -528 132 -369 173 -507 246 -833 40
-178 56 -194 225 -230 123 -26 160 -24 250 15 13 5 15 -7 15 -75 l0 -81 -70
-32 c-85 -39 -132 -84 -141 -133 -7 -37 -1 -279 15 -653 10 -204 19 -252 62
-315 87 -127 442 -189 738 -129 166 34 241 85 280 189 18 48 22 89 30 278 1
11 9 17 25 17 13 0 75 9 138 19 62 11 129 22 148 25 229 35 350 57 607 112 89
19 169 34 177 34 13 0 16 -15 16 -94 0 -90 1 -95 27 -115 14 -12 24 -23 22
-25 -2 -2 -47 -13 -99 -25 -52 -12 -105 -29 -118 -37 -48 -32 -67 -130 -38
-199 22 -51 101 -86 341 -151 264 -71 342 -72 446 -5 113 71 647 722 851 1036
99 153 120 187 194 321 292 527 475 1016 604 1619 79 369 112 631 111 900 0
227 -15 307 -81 442 -46 94 -51 110 -46 152 27 209 39 646 25 886 -13 217 -46
502 -75 640 -13 66 -35 174 -49 240 -66 335 -136 612 -290 1145 -110 379 -120
426 -107 490 18 84 15 139 -13 235 -35 120 -83 220 -142 296 -27 35 -54 73
-60 84 -6 11 -38 112 -72 225 -33 113 -78 259 -99 325 l-38 120 12 155 c6 85
11 290 10 455 -2 245 -6 315 -20 380 -24 109 -67 234 -112 330 -37 77 -38 83
-34 165 2 47 4 133 4 191 1 100 -1 109 -32 170 -22 44 -37 92 -46 156 -17 117
-46 173 -121 239 -45 39 -65 66 -78 102 -39 113 -105 175 -298 282 -34 19 -93
65 -129 102 -65 65 -67 69 -119 215 -56 158 -214 572 -247 648 -7 17 -40 102
-74 190 -116 303 -164 380 -281 448 -121 71 -397 131 -506 110z m163 -93 c85
-15 108 -27 143 -71 24 -29 101 -208 101 -234 0 -2 -11 6 -25 19 -30 28 -219
126 -319 166 -39 15 -72 34 -74 42 -1 8 4 31 13 51 14 35 18 37 58 37 24 0 70
-5 103 -10z m260 -70 c84 -41 135 -89 171 -157 28 -52 103 -237 225 -553 37
-96 97 -252 170 -438 15 -41 28 -77 28 -80 0 -10 -31 38 -131 203 -49 83 -114
188 -142 235 -247 401 -239 387 -333 649 -18 52 -45 111 -59 132 -23 35 -24
39 -7 39 10 0 46 -13 78 -30z m-430 -91 c61 -26 103 -45 224 -102 99 -46 169
-103 195 -161 8 -17 26 -49 40 -71 13 -22 30 -51 37 -65 14 -29 36 -65 133
-220 58 -92 269 -436 285 -465 10 -18 37 -63 61 -101 95 -156 177 -292 206
-344 51 -92 131 -229 167 -283 34 -53 57 -92 97 -162 81 -143 182 -326 234
-420 20 -38 65 -119 98 -180 124 -225 200 -414 228 -566 24 -134 19 -634 -10
-989 -76 -907 -82 -950 -165 -1106 -43 -81 -114 -184 -127 -184 -4 0 -10 8
-13 18 -3 9 -21 33 -38 52 -60 64 -78 93 -78 127 0 56 37 170 69 216 53 73 56
89 116 627 25 223 47 415 50 428 8 33 33 271 46 432 20 243 -5 430 -81 628
-49 126 -398 756 -788 1422 -86 146 -192 328 -237 405 -45 77 -112 192 -150
255 -37 63 -82 140 -100 170 -27 48 -68 115 -112 186 -7 10 -19 33 -28 49 -51
98 -59 104 -288 221 -119 61 -223 116 -229 122 -14 14 3 37 47 64 38 23 52 23
111 -3z m-1271 -44 c121 -8 276 -18 345 -21 106 -5 133 -10 176 -31 54 -27 60
-34 110 -128 l33 -60 -58 -60 c-32 -33 -60 -66 -62 -74 -7 -21 -205 61 -249
104 -47 45 -121 77 -395 170 -126 42 -234 81 -239 85 -18 18 8 30 62 30 31 0
156 -7 277 -15z m1052 -57 c7 -6 97 -53 200 -105 104 -52 192 -98 197 -103 10
-10 -3 -27 -94 -130 -103 -115 -113 -125 -123 -122 -12 4 -111 25 -317 68 -91
19 -200 42 -243 51 l-78 16 23 24 c13 14 68 64 123 111 55 48 109 95 120 106
11 10 47 38 79 63 59 43 80 47 113 21z m-1130 -88 c233 -79 326 -119 342 -147
5 -11 35 -138 65 -284 31 -145 76 -349 100 -454 69 -297 171 -726 210 -885 95
-393 151 -651 170 -790 8 -51 -11 -157 -38 -215 -35 -76 -100 -149 -246 -275
-207 -178 -383 -333 -520 -455 -69 -61 -140 -125 -158 -141 -26 -22 -44 -29
-78 -30 -24 0 -44 3 -44 7 0 4 39 40 88 80 127 107 362 311 529 460 18 16 65
57 105 91 40 34 78 67 84 73 258 234 270 295 150 770 -19 77 -74 298 -121 490
-47 193 -135 550 -196 795 -60 245 -124 501 -141 570 -35 141 -47 171 -80 192
-21 14 -262 105 -423 159 -70 24 -76 32 -66 84 1 3 14 -1 31 -10 16 -8 123
-47 237 -85z m-186 -29 c35 -11 102 -34 149 -51 47 -18 114 -42 150 -55 98
-35 100 -36 114 -64 8 -14 33 -102 56 -196 23 -93 97 -395 165 -670 255 -1028
317 -1282 336 -1369 46 -213 11 -320 -149 -463 -42 -37 -93 -82 -112 -99 -386
-344 -773 -674 -789 -674 -5 0 -10 815 -10 1836 -2 1583 0 1836 12 1831 8 -3
43 -14 78 -26z m1867 -247 c39 -66 78 -130 85 -144 29 -53 72 -127 107 -185
21 -33 72 -121 115 -195 43 -74 85 -146 94 -160 9 -14 21 -34 27 -45 6 -11 42
-72 79 -135 74 -126 94 -160 137 -235 16 -27 47 -79 69 -115 21 -36 42 -72 46
-80 7 -16 128 -228 182 -318 17 -29 31 -54 31 -56 0 -2 30 -55 66 -117 75
-130 108 -189 154 -274 18 -33 56 -103 85 -155 95 -169 167 -350 181 -452 l6
-43 -81 -2 c-65 -2 -92 -7 -134 -28 -68 -34 -90 -56 -121 -119 -24 -47 -142
-401 -252 -751 -25 -82 -66 -210 -90 -283 -24 -73 -57 -186 -75 -249 -30 -113
-30 -117 -14 -159 9 -24 30 -53 46 -65 17 -12 125 -66 242 -121 117 -54 218
-105 225 -112 11 -11 11 -22 -2 -66 -32 -108 -19 -157 68 -250 59 -63 55 -67
-51 -51 -445 66 -556 84 -613 102 -108 35 -220 199 -220 323 0 29 23 107 66
228 276 764 513 1476 521 1560 13 139 -76 364 -320 807 -83 152 -198 365 -275
511 -25 47 -87 161 -139 254 -51 92 -93 170 -93 171 0 2 -47 88 -103 192 -57
103 -166 304 -241 446 l-138 257 58 67 c33 36 81 92 109 123 40 47 53 56 70
50 11 -4 53 -61 93 -126z m-1166 49 c-15 -5 -106 24 -110 35 -2 7 20 2 57 -11
34 -12 58 -23 53 -24z m42 -53 l54 -21 22 -72 c12 -40 42 -137 66 -217 57
-182 97 -312 173 -560 32 -107 127 -413 209 -680 137 -440 232 -750 268 -870
7 -25 35 -117 62 -205 28 -88 78 -250 111 -360 34 -110 83 -265 108 -345 56
-177 127 -408 158 -514 l23 -79 -66 7 c-37 3 -103 6 -148 6 l-80 0 -90 281
c-74 234 -95 288 -123 320 -45 53 -83 71 -155 73 -72 1 -88 -7 -251 -127 -425
-313 -627 -472 -815 -642 l-85 -77 -5 320 c-4 286 -7 322 -22 339 -19 21 -15
25 167 183 22 19 42 37 45 40 3 3 39 34 80 70 41 35 77 67 80 70 3 3 100 88
217 188 228 196 282 251 318 322 46 90 58 155 52 270 -6 113 -37 258 -201 940
-26 107 -58 240 -71 295 -12 55 -52 224 -88 375 -61 254 -147 661 -147 694 0
17 47 8 134 -24z m266 -20 c80 -17 224 -46 320 -65 182 -37 198 -44 216 -99 3
-10 33 -69 66 -130 34 -61 120 -221 193 -356 73 -135 158 -291 188 -347 31
-56 80 -146 108 -200 29 -54 69 -127 89 -163 20 -36 51 -94 70 -130 18 -36 56
-108 85 -160 280 -506 369 -683 421 -835 70 -206 69 -227 -28 -515 -182 -539
-455 -1322 -496 -1424 -10 -26 -17 -34 -22 -25 -12 24 -77 219 -120 364 -106
355 -174 581 -215 710 -72 229 -232 746 -248 800 -23 77 -255 830 -282 915
-53 164 -185 593 -210 680 -7 25 -64 214 -128 420 -97 316 -145 474 -173 573
-7 22 -5 22 166 -13z m1813 -1024 c18 -13 66 -41 107 -62 103 -53 160 -112
193 -200 15 -38 27 -73 27 -77 0 -4 -32 29 -71 73 -76 86 -207 205 -244 222
-20 9 -64 68 -50 68 4 0 21 -11 38 -24z m188 -244 c116 -124 165 -206 244
-412 34 -86 72 -247 61 -257 -3 -3 -13 7 -21 23 -51 92 -186 330 -306 542 -77
134 -139 246 -139 249 0 12 86 -65 161 -145z m214 -150 c35 -27 54 -50 66 -82
19 -52 35 -200 22 -200 -5 0 -22 33 -37 73 -15 39 -48 109 -72 154 -24 46 -44
85 -44 88 0 12 18 3 65 -33z m146 -380 c25 -56 32 -131 21 -212 l-8 -65 -17
39 c-9 21 -17 62 -17 90 0 46 -19 155 -36 210 l-7 21 23 -20 c12 -11 31 -40
41 -63z m-41 -932 c30 -19 9 -479 -35 -760 -2 -14 -9 -70 -15 -125 -6 -55 -17
-152 -25 -215 -8 -63 -19 -164 -25 -225 -24 -249 -40 -338 -72 -400 -45 -90
-43 -89 -102 -57 -28 16 -100 51 -161 79 -235 108 -266 125 -282 156 -25 50
-17 99 50 307 8 25 25 79 37 120 13 41 44 140 70 220 26 80 62 192 79 250 18
58 64 200 102 316 60 181 75 217 107 251 20 22 50 48 66 57 46 29 176 45 206
26z m-1976 -572 c38 -60 103 -325 92 -379 -10 -57 -24 -71 -476 -478 -58 -52
-125 -113 -150 -135 -25 -23 -103 -94 -175 -158 -145 -131 -209 -200 -309
-333 -167 -221 -296 -498 -345 -742 l-17 -83 -44 63 c-24 34 -66 88 -93 120
l-50 57 2 118 c6 302 102 535 323 779 41 45 57 68 47 72 -20 6 -150 -138 -219
-242 -101 -153 -166 -345 -176 -522 -3 -49 -7 -115 -10 -145 -2 -30 -6 -109
-8 -175 -2 -66 -7 -172 -11 -236 l-7 -115 -57 -20 -56 -20 -5 -90 c-7 -120
-38 -167 -90 -134 -21 13 -15 60 36 260 60 236 73 320 84 560 11 232 26 341
64 453 77 230 252 463 551 738 275 252 1009 809 1066 809 10 0 25 -10 33 -22z
m95 -34 c19 -24 63 -147 126 -354 13 -41 64 -205 115 -365 92 -295 162 -521
230 -745 21 -69 94 -307 163 -530 68 -223 134 -436 145 -475 l21 -70 -29 -29
-29 -29 -16 59 c-9 32 -32 106 -50 164 -19 58 -55 175 -80 260 -195 648 -500
1586 -547 1680 -16 33 -27 64 -24 69 11 18 -15 172 -49 287 -19 65 -35 120
-35 122 0 9 41 -22 59 -44z m-1327 -101 c17 -15 18 -39 18 -340 l0 -323 -110
-109 -110 -108 0 448 0 449 92 0 c71 0 95 -4 110 -17z m1360 -370 c41 -92 180
-512 348 -1048 212 -680 330 -1067 330 -1083 0 -6 -44 -57 -97 -113 -145 -148
-151 -170 -107 -356 124 -528 280 -1158 300 -1215 13 -37 12 -38 -14 -52 -62
-31 -65 -30 -109 37 -23 34 -64 85 -91 113 -46 47 -153 126 -184 136 -9 3 -5
19 15 59 21 41 27 68 27 114 -1 77 -25 131 -90 196 -182 182 -570 182 -751 -1
-65 -65 -89 -118 -89 -195 0 -73 23 -127 78 -187 l40 -43 -56 -45 c-49 -39
-115 -116 -162 -188 l-15 -23 -60 28 c-195 91 -411 -50 -456 -296 -45 -252
146 -503 363 -478 29 4 75 18 103 33 34 17 51 22 53 14 9 -27 97 -148 141
-193 25 -26 71 -64 101 -84 30 -20 57 -38 59 -39 2 -2 -13 -22 -33 -46 -71
-82 -85 -213 -32 -302 76 -130 236 -207 430 -207 150 -1 270 41 364 126 75 67
96 112 96 205 1 80 -16 125 -69 188 l-26 31 48 32 c26 18 71 55 100 82 46 43
70 76 129 173 l13 22 43 -22 c46 -22 159 -29 207 -12 l24 8 -21 -27 c-12 -15
-27 -45 -32 -66 -10 -38 -3 -375 20 -959 5 -129 12 -318 15 -420 9 -300 15
-451 22 -510 13 -121 80 -199 217 -250 44 -17 88 -34 96 -39 12 -7 16 -45 22
-202 4 -107 12 -308 18 -448 5 -140 8 -256 5 -259 -2 -3 -71 12 -152 31 -81
20 -170 41 -198 47 -27 6 -108 27 -180 46 -71 20 -179 50 -240 66 -60 17 -238
68 -395 113 -157 46 -303 88 -325 94 l-40 11 -104 237 c-58 130 -122 262 -143
293 -65 98 -175 155 -265 139 -85 -16 -118 -53 -154 -174 -15 -50 -79 -350
-79 -371 0 -1 -12 -5 -27 -9 -39 -9 -148 -71 -189 -107 -19 -17 -36 -29 -37
-27 -45 65 -344 787 -398 959 l-24 75 0 572 0 572 24 13 c42 23 120 117 133
161 15 55 15 89 -6 652 -20 563 -24 1617 -7 1915 7 107 21 276 32 374 l20 180
-27 54 c-27 53 -27 57 -16 132 27 187 154 489 289 688 130 190 220 284 623
642 158 140 415 378 465 429 27 28 53 51 58 51 4 0 18 -21 29 -47z m2161 -236
c32 -105 105 -340 162 -522 57 -181 126 -404 154 -495 27 -91 63 -209 79 -262
31 -102 29 -129 -4 -55 -10 23 -43 87 -72 142 -30 55 -88 165 -130 245 -41 80
-88 164 -104 187 -19 28 -31 63 -38 110 -11 76 -55 273 -101 449 -29 111 -30
121 -23 255 4 76 10 139 13 139 3 0 32 -87 64 -193z m-1675 104 c23 -5 45 -10
47 -12 2 -2 20 -58 40 -124 19 -66 38 -128 41 -138 5 -17 -2 -18 -138 -12 -78
4 -146 10 -149 14 -6 6 -89 262 -89 275 0 9 198 6 248 -3z m1648 -558 c24
-105 44 -209 44 -229 0 -35 -9 -47 -125 -161 l-125 -124 -38 28 c-20 15 -41
30 -46 34 -4 4 12 36 37 71 24 34 59 92 76 126 41 82 90 274 88 344 -1 29 3
85 7 123 l9 70 14 -45 c8 -25 34 -131 59 -237z m-1517 218 c32 -17 141 -357
190 -591 29 -139 174 -813 225 -1051 25 -113 63 -279 84 -370 22 -90 59 -246
82 -346 l43 -182 -36 -40 -36 -40 -6 37 c-27 170 -65 284 -118 358 -26 37 -44
84 -75 199 -23 83 -53 179 -67 215 -40 99 -53 142 -150 475 -26 88 -98 324
-160 525 -62 201 -142 462 -178 580 -36 118 -69 224 -73 234 -7 18 -2 19 125
13 73 -4 140 -11 150 -16z m1794 -251 c50 -119 80 -236 71 -280 -8 -44 -7 -46
-78 185 -30 99 -58 189 -62 200 l-7 20 20 -20 c11 -11 36 -58 56 -105z m-1429
-359 c44 -16 416 -79 551 -93 35 -4 39 -20 49 -203 4 -66 9 -151 11 -190 7
-106 14 -236 26 -500 6 -132 12 -250 13 -263 1 -18 -10 -27 -59 -49 -33 -15
-133 -60 -223 -100 -90 -40 -167 -73 -172 -73 -4 0 -22 57 -39 128 -42 173
-236 1056 -295 1345 l-24 117 54 -49 c32 -29 77 -58 108 -70z m1297 -35 c29
-55 118 -225 199 -377 187 -351 219 -438 184 -498 -10 -17 -24 -33 -31 -35
-19 -8 -66 56 -134 183 -99 183 -125 216 -340 425 l-203 196 119 119 c141 140
128 141 206 -13z m-556 -86 c24 -9 76 -166 200 -604 70 -245 153 -621 141
-633 -5 -5 -334 79 -382 97 -20 8 -21 18 -28 167 -4 87 -9 190 -11 228 -3 39
-12 198 -20 355 -8 157 -18 313 -21 347 l-6 62 53 -6 c30 -3 63 -9 74 -13z
m95 3 c92 -62 475 -433 494 -478 7 -17 16 -57 20 -90 4 -33 19 -125 33 -205
14 -80 25 -152 25 -160 0 -9 -32 -87 -71 -175 -59 -134 -68 -162 -57 -175 33
-38 351 -591 368 -639 17 -48 19 -84 19 -315 0 -414 -42 -798 -150 -1381 -11
-55 -22 -121 -26 -148 -6 -42 -8 -46 -25 -37 -16 9 -18 19 -13 87 3 43 18 155
34 248 27 162 81 621 93 790 32 478 32 691 -1 765 -20 46 -184 293 -338 510
-45 63 -85 120 -88 126 -4 7 -25 106 -47 221 -21 114 -53 256 -70 313 -52 173
-138 446 -191 601 -27 80 -49 149 -49 152 0 11 14 8 40 -10z m-3438 -520 c41
-54 95 -128 120 -165 44 -66 45 -67 37 -125 -16 -112 -38 -359 -45 -508 l-7
-150 -13 95 c-14 102 -41 195 -80 272 -13 26 -24 54 -24 63 0 8 -4 23 -9 33
-5 9 -26 53 -46 97 -34 75 -36 84 -31 155 3 41 8 132 12 203 3 70 7 127 9 127
1 0 36 -44 77 -97z m4098 -203 c215 -374 383 -761 435 -1005 75 -351 105 -954
69 -1390 -19 -235 -33 -281 -123 -412 -60 -86 -101 -135 -101 -121 0 3 13 99
29 214 31 215 70 569 93 824 25 276 13 688 -24 840 -23 92 -159 378 -336 700
l-95 174 -29 161 c-15 88 -28 171 -27 185 0 25 0 25 16 -5 8 -16 50 -91 93
-165z m264 -242 c56 -232 74 -318 66 -318 -7 0 -111 229 -150 332 l-22 55 26
38 c14 21 26 43 26 48 0 7 3 7 9 2 5 -6 25 -76 45 -157z m-4465 33 c17 -32 31
-61 31 -64 0 -2 -18 1 -40 7 -30 7 -49 7 -72 -2 -17 -6 -33 -10 -36 -8 -2 2 0
25 4 51 6 40 11 49 38 61 17 7 34 13 37 14 3 0 20 -27 38 -59z m2511 -10 c0
-11 -10 -27 -22 -36 -48 -33 -198 -189 -213 -221 -34 -72 -23 -147 86 -578 27
-109 61 -257 75 -329 13 -72 36 -165 50 -206 40 -115 93 -330 84 -336 -5 -3
-11 -1 -14 4 -16 25 -280 1092 -322 1302 -26 124 -15 149 136 301 64 65 121
118 128 118 7 0 12 -9 12 -19z m1679 -97 c71 -123 328 -641 344 -694 40 -125
64 -502 48 -735 -30 -414 -122 -1172 -150 -1224 -12 -21 -83 -81 -118 -100
-12 -6 -35 -11 -52 -11 -38 0 -39 8 -11 152 108 567 153 971 154 1398 1 248
-1 292 -17 336 -9 27 -67 135 -128 240 -262 448 -243 411 -231 447 5 18 28 75
50 127 21 52 42 103 45 113 11 29 29 15 66 -49z m-4169 -4 c87 -62 160 -326
146 -524 -10 -134 -31 -226 -69 -308 -64 -137 -131 -167 -207 -93 -76 74 -120
234 -120 435 0 214 43 389 115 466 48 51 88 58 135 24z m2529 -17 c39 -121
101 -335 101 -351 0 -13 -12 -22 -40 -31 -77 -23 -139 -142 -177 -341 l-9 -45
-17 70 c-9 39 -35 146 -57 238 -45 191 -49 243 -20 302 22 46 169 195 192 195
8 0 20 -17 27 -37z m-2767 -93 c-43 -188 -53 -218 -47 -150 3 30 5 81 5 113 0
55 1 58 23 55 13 -2 21 -9 19 -18z m3793 -80 c88 -23 176 -46 196 -51 54 -14
75 -66 83 -206 3 -61 3 -148 -1 -191 l-6 -80 -151 -6 c-83 -3 -275 -7 -426
-10 l-275 -4 -44 190 c-38 160 -42 191 -30 199 12 7 228 104 419 188 25 11 52
18 60 16 8 -2 87 -22 175 -45z m391 -280 c161 -227 273 -400 283 -436 23 -81
6 -619 -29 -952 -21 -199 -51 -438 -59 -472 -5 -20 -9 280 -10 708 -1 664 -3
745 -17 767 -23 36 -128 103 -188 120 l-51 15 -3 166 c-1 92 -5 171 -9 177 -3
5 -1 8 5 6 6 -2 41 -47 78 -99z m-1274 31 c92 -46 168 -307 155 -532 -16 -268
-86 -429 -189 -429 -32 0 -46 6 -71 33 -93 98 -147 385 -113 603 27 180 77
292 145 326 19 9 37 16 40 15 3 -2 18 -9 33 -16z m-2485 -729 c0 -312 7 -740
15 -952 18 -540 18 -676 -5 -720 -26 -51 -54 -86 -64 -77 -4 5 -9 471 -12
1035 -3 1004 -3 1029 17 1092 11 36 23 90 27 120 6 49 12 70 18 70 1 0 3 -255
4 -568z m-452 442 c20 -91 38 -135 76 -191 l29 -42 0 -431 0 -432 -30 6 c-16
3 -43 9 -60 12 l-30 6 0 351 c-1 194 -3 452 -5 575 -2 122 -2 222 0 222 2 0
11 -34 20 -76z m4233 -90 c39 -19 72 -39 72 -45 0 -5 -212 -9 -552 -9 l-553 1
39 34 c21 19 53 37 70 40 43 7 762 23 811 18 22 -2 73 -20 113 -39z m-2160
-70 c123 -35 223 -110 257 -191 38 -89 10 -202 -68 -268 -145 -124 -391 -152
-582 -65 -104 46 -162 110 -185 202 -33 129 89 271 277 323 70 19 233 18 301
-1z m1131 -181 c0 -200 -13 -189 -23 20 -6 129 -5 147 8 147 14 0 16 -22 15
-167z m71 -145 c0 -171 -3 -309 -6 -306 -3 3 -12 32 -19 65 -10 41 -14 129
-15 306 0 240 1 247 20 247 20 0 20 -7 20 -312z m71 -10 c1 -178 2 -394 3
-480 0 -86 -2 -154 -7 -149 -4 4 -14 45 -22 92 -12 65 -15 173 -15 472 0 380
0 387 20 387 20 0 20 -7 21 -322z m85 -575 c-4 -493 -9 -899 -11 -902 -3 -2
-5 38 -5 90 0 76 -4 100 -20 127 -11 17 -24 32 -29 32 -5 0 -13 9 -16 21 -5
15 1 29 21 50 l27 28 -7 198 c-9 237 -9 156 -7 758 l1 495 27 0 26 0 -7 -897z
m84 -23 l0 -920 -32 0 -31 0 6 308 c4 169 7 583 7 920 l0 612 25 0 25 0 0
-920z m90 0 l0 -920 -30 0 -30 0 0 920 0 920 30 0 30 0 0 -920z m88 88 c-1
-458 -4 -872 -6 -920 -3 -85 -4 -88 -28 -88 l-24 0 0 920 0 920 30 0 31 0 -3
-832z m83 815 c0 -10 1 -81 0 -158 0 -77 0 -483 -1 -902 l0 -763 -25 0 -25 0
0 920 0 920 25 0 c17 0 25 -6 26 -17z m89 -903 l0 -920 -31 0 -32 0 6 713 c4
391 6 805 7 920 l0 207 25 0 25 0 0 -920z m90 0 l0 -920 -29 0 -29 0 3 693 c2
380 4 794 4 920 l1 227 25 0 25 0 0 -920z m90 0 l-1 -920 -29 0 -30 0 0 920 0
920 30 0 30 0 0 -920z m80 0 l0 -920 -25 0 -25 0 0 920 0 920 25 0 25 0 0
-920z m79 0 l-2 -920 -24 0 -24 0 2 895 c1 492 4 906 7 920 3 16 11 25 24 25
19 0 19 -15 17 -920z m69 -2 c-3 -870 -4 -923 -20 -926 -17 -3 -18 46 -18 922
0 920 0 926 20 926 20 0 20 -5 18 -922z m62 2 c0 -821 -2 -920 -15 -920 -14 0
-16 95 -14 888 1 488 3 902 6 920 18 117 23 -62 23 -888z m-3986 110 c3 -432
9 -889 13 -1017 l6 -231 -42 -13 c-36 -11 -50 -10 -84 2 l-42 14 -3 432 -2
432 -55 12 -56 12 3 81 3 81 40 10 c22 6 46 14 53 18 9 6 12 106 12 443 l0
434 29 0 c29 0 75 29 100 63 7 10 14 17 16 15 1 -2 5 -356 9 -788z m2880 30
c37 -162 70 -303 73 -313 4 -15 0 -18 -23 -15 -28 3 -29 6 -62 148 -19 80 -58
243 -87 362 -53 218 -53 218 -37 270 l15 53 27 -105 c15 -58 58 -238 94 -400z
m-59 -99 c30 -129 54 -235 53 -237 -2 -1 -15 -5 -31 -9 -25 -7 -27 -5 -27 27
0 46 -25 141 -55 208 -13 30 -42 132 -63 225 l-40 170 26 34 26 35 28 -110
c15 -60 52 -214 83 -343z m-785 377 c84 -55 180 -154 216 -221 l28 -54 -37
-45 c-133 -163 -136 -406 -6 -560 21 -26 39 -55 39 -66 0 -26 -68 -127 -122
-181 -24 -24 -69 -61 -100 -82 l-58 -39 -57 28 c-176 89 -367 92 -545 10 l-70
-32 -36 20 c-57 29 -195 172 -236 243 -37 63 -37 64 -18 85 35 38 69 100 92
170 44 132 12 299 -78 414 l-29 37 26 42 c39 62 130 162 173 191 l39 25 43
-22 c67 -33 191 -61 271 -61 123 0 307 62 361 121 24 26 30 25 104 -23z m527
-36 c21 3 44 7 52 9 11 3 22 -29 46 -126 18 -71 30 -132 28 -134 -1 -3 -14 6
-27 18 -13 12 -50 33 -82 46 l-59 24 -22 83 c-29 109 -29 112 2 92 16 -10 38
-15 62 -12z m-1662 -209 c63 -21 129 -88 169 -173 29 -60 31 -73 31 -175 0
-103 -2 -114 -31 -175 -59 -121 -139 -181 -251 -188 -81 -5 -153 27 -217 99
-68 76 -90 142 -91 269 0 99 2 110 32 171 78 157 212 222 358 172z m1656 -8
c137 -48 223 -188 221 -355 -2 -197 -132 -361 -287 -362 -188 -2 -327 174
-312 393 9 137 81 255 189 308 69 35 122 39 189 16z m-2834 -198 c2 -3 -5 -18
-17 -34 -18 -25 -20 -40 -18 -118 l3 -89 32 -8 32 -8 4 -1013 c2 -556 8 -1025
12 -1042 16 -65 -13 -6 -47 95 -36 105 -47 146 -69 250 -8 38 -13 346 -16
1019 l-4 964 41 -6 c23 -3 44 -8 47 -10z m3253 -234 c0 -27 3 -94 7 -149 5
-100 5 -102 -18 -114 -15 -9 -74 -13 -175 -14 l-152 -1 39 33 c52 44 106 137
122 208 l14 59 59 11 c104 21 104 21 104 -33z m1674 -338 c44 -91 60 -170 60
-295 l1 -115 -55 -95 c-64 -110 -65 -111 -166 -375 -158 -412 -319 -720 -507
-970 -87 -116 -155 -193 -303 -346 -180 -185 -186 -198 -259 -564 -114 -575
-220 -868 -471 -1305 -46 -80 -89 -153 -96 -163 -13 -18 -19 -18 -143 13 -135
33 -306 85 -340 103 -16 8 5 18 125 57 174 56 204 71 285 141 85 74 135 143
205 284 90 180 178 469 249 820 12 55 25 120 31 145 5 25 17 86 25 135 37 224
60 270 231 470 71 83 140 163 154 180 14 16 43 50 66 75 64 70 199 244 253
324 96 142 169 271 331 581 34 66 98 185 141 265 117 217 129 254 128 403 0
67 -4 143 -8 168 -5 34 -3 57 8 83 9 20 19 36 23 36 3 0 18 -25 32 -55z
m-1756 5 c22 0 32 -5 32 -15 0 -12 -20 -15 -119 -15 -143 0 -167 -7 -188 -57
-16 -40 -15 -159 7 -653 5 -113 14 -383 20 -600 14 -500 23 -618 50 -676 34
-70 92 -106 250 -153 l65 -19 -53 -1 c-76 -1 -191 48 -253 108 -38 37 -49 56
-58 99 -11 54 -25 379 -36 832 -3 135 -8 279 -10 320 -14 211 -25 738 -15 770
18 63 40 72 165 66 61 -3 125 -6 143 -6z m94 -92 c16 -13 23 -102 19 -235 l-1
-43 -60 0 c-34 0 -74 -7 -90 -15 -47 -24 -53 -63 -48 -287 4 -155 2 -201 -8
-205 -21 -8 -60 -75 -87 -149 l-25 -69 -6 190 c-4 105 -11 289 -17 410 -14
337 -13 371 11 395 18 18 33 20 158 20 95 0 143 -4 154 -12z m1555 -123 c8
-97 -15 -175 -89 -315 -34 -63 -105 -198 -159 -300 -261 -497 -395 -704 -630
-971 -387 -438 -393 -449 -444 -749 -14 -85 -32 -180 -39 -210 -8 -30 -24
-104 -37 -165 -17 -80 -25 -103 -29 -85 -8 30 -15 561 -15 1060 1 324 13 623
25 633 3 2 37 14 75 27 91 30 289 107 340 132 61 31 113 86 145 154 35 75 152
396 175 480 l17 62 72 37 c62 31 75 35 99 26 48 -19 127 -13 183 13 61 28 159
118 234 215 50 65 56 68 63 48 5 -12 11 -53 14 -92z m-2682 11 c143 -54 228
-151 228 -261 0 -221 -331 -370 -611 -274 -341 116 -324 452 28 555 30 9 86
12 165 10 101 -3 131 -7 190 -30z m2043 -177 c-61 -32 -173 -40 -508 -37
l-315 3 -3 28 -3 27 433 0 433 -1 -37 -20z m-888 -272 c3 -136 4 -251 2 -256
-1 -4 -20 9 -41 31 -34 33 -45 38 -85 38 l-46 0 0 198 c0 242 -1 240 110 238
l55 -1 5 -248z m815 166 c-4 -10 -35 -97 -70 -193 -126 -347 -147 -385 -239
-432 -109 -55 -389 -158 -401 -147 -17 18 -35 208 -37 401 l-3 216 165 4 c192
4 214 11 319 98 l63 54 97 6 c53 4 100 8 105 8 4 1 5 -6 1 -15z m-310 -30
c-68 -59 -125 -73 -295 -73 l-150 0 0 50 0 49 88 3 c48 2 156 3 241 4 l155 1
-39 -34z m1184 -100 c-20 -347 -131 -865 -290 -1352 -194 -592 -559 -1236
-1007 -1775 -128 -155 -324 -377 -329 -372 -2 2 53 117 122 256 212 425 243
515 350 1040 31 150 69 311 85 359 46 141 113 268 180 343 191 212 322 391
427 583 56 100 143 278 143 290 0 3 9 24 19 48 11 23 47 116 81 207 107 285
122 323 173 418 27 51 50 92 51 90 1 -2 -1 -62 -5 -135z m-4839 7 l29 0 3
-612 3 -613 29 -75 c33 -89 214 -508 316 -735 39 -88 74 -165 76 -171 10 -22
-42 -23 -131 -2 -140 32 -138 31 -164 145 -13 54 -34 144 -47 201 -13 57 -51
194 -85 305 -34 111 -68 225 -75 252 -34 117 -40 250 -36 792 l4 532 25 -10
c13 -5 37 -9 53 -9z m100 -527 c0 -614 -1 -601 73 -799 70 -186 253 -627 311
-747 51 -106 54 -128 16 -127 -10 1 -34 43 -69 123 -30 67 -73 165 -97 217
-75 167 -240 563 -260 625 -18 57 -19 90 -15 650 1 325 5 593 8 598 2 4 11 7
19 7 12 0 14 -78 14 -547z m2978 242 c34 -24 68 -91 98 -190 23 -77 27 -114
31 -250 4 -135 2 -175 -16 -257 -11 -54 -30 -120 -42 -148 -26 -60 -88 -120
-126 -120 -65 0 -124 86 -165 243 -29 110 -32 352 -5 472 23 103 72 210 111
241 36 27 82 31 114 9z m-164 -953 c30 -34 76 -55 113 -54 40 2 109 44 118 72
14 46 20 12 23 -140 2 -88 2 -160 0 -160 -30 0 -161 37 -197 54 -97 50 -121
98 -120 246 l0 85 21 -40 c11 -22 30 -51 42 -63z m-1748 -272 c56 -24 110 -82
152 -165 27 -55 170 -365 199 -434 5 -10 1 -13 -13 -9 -272 79 -445 118 -565
126 l-95 7 32 164 c32 165 70 275 104 306 40 36 109 38 186 5z m2004 -162 c0
-29 3 -96 5 -148 2 -52 7 -224 10 -381 l5 -285 -30 -29 c-16 -16 -32 -26 -35
-24 -8 9 -31 602 -30 799 0 102 0 104 25 111 48 13 50 12 50 -43z m616 -45
c-64 -152 -79 -208 -161 -618 -71 -359 -120 -497 -302 -865 -69 -140 -136
-284 -149 -319 -13 -36 -29 -69 -36 -73 -25 -18 -78 -38 -97 -38 -18 0 -17 6
18 63 96 158 120 201 187 337 163 330 261 638 348 1102 37 197 64 290 99 348
18 30 115 140 123 140 1 0 -13 -35 -30 -77z m-2713 -362 c43 -10 81 -22 85
-26 11 -11 14 -438 3 -466 -8 -21 -20 -28 -73 -40 -116 -26 -373 -13 -428 21
-12 8 -15 43 -16 211 -1 201 -1 203 23 227 25 25 131 77 173 85 57 10 160 5
233 -12z m322 -81 c66 -17 253 -70 415 -117 316 -91 488 -139 640 -179 52 -14
110 -30 128 -35 l33 -11 -3 -116 -3 -117 -120 -27 c-254 -59 -936 -178 -1016
-178 l-28 0 -3 181 -3 181 -38 33 c-20 18 -67 45 -103 61 l-65 29 5 70 c3 39
5 114 6 168 0 89 2 98 18 93 9 -2 71 -19 137 -36z m-805 -396 c0 -19 4 -43 10
-53 34 -65 351 -92 532 -46 70 18 98 42 98 86 0 16 5 29 10 29 15 0 127 -58
134 -69 8 -12 -17 -37 -57 -57 -101 -53 -444 -80 -620 -50 -181 31 -279 75
-258 115 10 18 116 80 139 81 7 0 12 -14 12 -36z m2289 -9 c99 -25 193 -45
209 -45 16 0 51 11 78 25 27 14 50 25 52 25 11 0 -51 -199 -95 -305 -34 -82
-109 -230 -136 -269 -12 -18 -39 -52 -59 -74 l-38 -42 -92 34 c-51 19 -101 37
-110 41 -17 7 -18 32 -18 331 0 272 2 324 14 324 8 0 96 -20 195 -45z m-2424
-114 c9 -16 124 -50 225 -67 74 -12 133 -15 265 -11 193 6 298 23 376 60 29
15 55 24 57 22 8 -8 13 -586 5 -680 l-8 -100 -35 -17 c-86 -42 -189 -60 -380
-65 -158 -4 -199 -2 -280 15 -116 24 -199 58 -210 86 -4 12 -13 149 -19 306
-6 157 -13 324 -15 373 -3 79 3 103 19 78z m2145 -169 l0 -79 -222 -46 c-305
-64 -677 -128 -880 -152 l-58 -6 0 75 c0 85 -4 80 95 91 232 24 720 111 955
169 52 13 98 24 103 25 4 1 7 -34 7 -77z m255 -468 c-41 -32 -114 -63 -253
-108 -79 -25 -146 -46 -149 -46 -2 0 -3 14 -1 32 5 49 37 65 208 99 85 17 157
32 159 35 2 2 16 4 30 4 25 -1 26 -1 6 -16z m-2240 -224 c211 -55 532 -43 722
27 16 6 16 4 -2 -16 -64 -74 -277 -115 -505 -98 -114 8 -188 26 -260 62 -52
26 -91 63 -55 52 11 -4 56 -16 100 -27z"/>
<path d="M5262 12107 c-24 -26 -72 -170 -72 -217 0 -14 5 -31 11 -37 7 -7 3
-15 -14 -26 -17 -11 -33 -43 -56 -111 -30 -91 -31 -97 -16 -126 15 -29 15 -31
-8 -39 -19 -8 -32 -29 -56 -96 -32 -89 -38 -129 -21 -140 16 -10 12 -21 -14
-33 -20 -9 -31 -31 -55 -107 -39 -119 -39 -131 0 -154 30 -18 48 -23 253 -61
154 -29 158 -26 187 169 11 78 11 85 -6 97 -18 13 -18 15 4 38 19 20 25 43 33
117 7 64 7 99 -1 115 -9 20 -7 28 8 43 22 22 48 219 32 248 -6 13 -4 24 9 40
25 31 48 216 29 239 -24 30 -91 55 -157 61 -62 5 -69 3 -90 -20z m137 -22 c30
-8 63 -23 73 -33 18 -18 19 -23 4 -107 -9 -49 -22 -95 -29 -102 -10 -11 -25
-10 -82 2 -39 8 -79 15 -91 15 -11 0 -28 6 -38 13 -16 12 -16 17 5 101 32 127
50 140 158 111z m-10 -291 l51 -15 -1 -57 c0 -71 -13 -150 -26 -163 -9 -9
-182 12 -243 29 -34 10 -35 30 -9 118 35 117 77 133 228 88z m-133 -264 c82
-15 142 -38 146 -58 2 -9 0 -49 -3 -89 -6 -81 -25 -113 -67 -113 -41 0 -256
42 -270 53 -16 12 -11 35 24 128 33 89 54 99 170 79z m-41 -284 c83 -15 165
-42 165 -56 0 -4 -9 -52 -20 -105 -11 -53 -20 -99 -20 -101 0 -14 -173 12
-317 48 -66 16 -68 25 -39 119 14 45 31 88 37 95 15 18 92 18 194 0z"/>
<path d="M3132 10448 c-171 -169 -231 -253 -287 -402 -67 -177 -69 -262 -29
-1036 21 -416 23 -429 72 -473 40 -36 88 -38 166 -8 245 97 352 120 602 131
217 9 243 15 284 67 18 24 21 38 18 88 -5 65 -97 358 -290 920 -247 718 -301
833 -392 835 -11 0 -70 -50 -144 -122z m183 41 c38 -46 55 -84 140 -304 104
-272 444 -1289 451 -1351 7 -57 -6 -91 -39 -103 -12 -5 -101 -12 -197 -15
-240 -10 -389 -42 -617 -132 -129 -52 -159 -25 -173 151 -15 203 -41 751 -43
930 -2 150 1 180 22 260 26 101 73 210 122 282 32 48 287 313 300 313 4 0 19
-14 34 -31z"/>
<path d="M3253 10416 c-4 -8 -24 -32 -43 -53 -184 -202 -236 -284 -276 -443
-15 -61 -19 -112 -19 -270 0 -361 33 -972 53 -992 13 -13 24 -10 158 46 34 14
115 40 180 57 107 28 138 32 306 36 139 4 191 9 199 19 8 10 2 40 -24 121 -20
59 -81 250 -137 423 -152 468 -273 824 -320 941 -23 57 -44 110 -47 117 -7 16
-20 15 -30 -2z m56 -140 c86 -219 471 -1393 471 -1435 0 -7 -44 -11 -132 -11
-204 0 -420 -44 -577 -116 -41 -19 -78 -31 -82 -27 -4 5 -12 107 -18 228 -6
121 -14 272 -18 335 -4 63 -7 225 -7 360 -1 213 2 254 18 310 30 103 69 179
132 261 47 61 163 196 171 198 1 1 20 -46 42 -103z"/>
<path d="M4300 5723 c-14 -2 -72 -20 -130 -39 -142 -46 -225 -63 -355 -70
-103 -6 -242 7 -365 35 -79 17 -152 -29 -166 -105 -11 -58 4 -138 231 -1234
35 -168 50 -211 88 -250 38 -39 73 -55 192 -86 153 -40 581 -133 637 -139 65
-7 106 14 133 71 17 36 17 49 1 323 -9 157 -21 345 -26 416 -6 72 -21 312 -35
535 -14 223 -28 416 -31 429 -9 41 -45 82 -88 102 -23 10 -45 18 -51 17 -5 0
-21 -3 -35 -5z m86 -71 c12 -9 27 -27 33 -39 6 -12 18 -122 26 -245 8 -123 21
-331 30 -463 9 -132 20 -310 25 -395 5 -85 15 -247 22 -358 10 -176 10 -207
-2 -230 -16 -27 -61 -48 -86 -38 -13 5 -13 8 0 29 14 20 14 48 1 247 -17 269
-31 490 -45 740 -24 421 -42 655 -52 667 -16 20 -51 16 -99 -11 -24 -14 -78
-34 -120 -46 -190 -52 -363 -63 -519 -34 -138 26 -179 28 -185 13 -3 -8 42
-248 99 -534 122 -607 172 -840 189 -869 24 -43 18 13 -17 180 -20 92 -35 169
-33 171 2 2 20 -4 41 -12 34 -14 56 -13 318 20 287 36 313 43 349 88 16 20 17
18 23 -54 20 -258 36 -557 31 -572 -5 -11 -14 -15 -29 -12 -11 3 -133 30 -271
60 -416 92 -424 94 -467 133 -43 39 -42 36 -98 302 -22 107 -58 278 -80 380
-40 192 -70 344 -116 589 -31 162 -27 205 17 230 24 13 40 13 145 -5 242 -39
455 -22 674 54 99 35 165 39 196 14z m-52 -347 c9 -132 20 -323 26 -425 5
-102 12 -209 15 -238 l5 -53 -67 6 c-100 10 -554 -51 -630 -85 -32 -14 -45
-16 -48 -7 -5 18 -58 280 -110 547 -25 129 -54 277 -66 328 -11 51 -19 95 -17
97 2 2 37 -5 78 -16 108 -30 316 -37 442 -15 129 22 265 62 308 90 19 13 38
21 42 17 4 -3 14 -114 22 -246z m-6 -764 c-19 -24 -33 -30 -83 -36 -33 -4
-163 -20 -289 -35 -173 -21 -235 -26 -252 -18 -68 31 -14 44 446 107 36 5 96
9 133 10 l69 1 -24 -29z"/>
<path d="M3624 7616 c-127 -41 -223 -124 -282 -246 -37 -74 -37 -76 -37 -200
0 -116 2 -129 28 -185 76 -161 207 -259 378 -279 319 -39 585 285 489 596 -78
253 -334 393 -576 314z m259 -67 c233 -76 342 -360 222 -575 -76 -136 -210
-210 -363 -202 -100 6 -174 35 -243 97 -136 121 -173 307 -95 476 81 177 290
266 479 204z"/>
<path d="M3633 7485 c-95 -41 -156 -109 -198 -217 -16 -44 -16 -49 -1 -73 9
-14 23 -25 31 -25 24 0 17 -36 -10 -50 -32 -17 -31 -38 0 -101 36 -70 88 -124
150 -154 66 -33 105 -30 123 8 17 36 32 34 60 -9 27 -41 41 -41 131 4 66 33
124 97 150 168 24 62 20 78 -20 94 -36 15 -36 21 1 42 41 24 45 39 24 105 -35
110 -145 212 -234 216 -38 2 -46 -2 -57 -23 -15 -29 -29 -28 -55 5 -22 28 -48
31 -95 10z m74 -30 c2 -6 -17 -16 -42 -23 -79 -21 -161 -112 -180 -199 -7 -35
-19 -42 -29 -18 -9 23 37 117 80 165 56 62 160 108 171 75z m191 -9 c56 -29
102 -76 130 -131 28 -57 35 -94 21 -111 -18 -22 -29 -17 -29 14 -1 72 -80 177
-160 211 -28 12 -50 26 -50 31 0 17 39 11 88 -14z m-64 -37 c58 -16 131 -93
150 -160 38 -128 -33 -277 -147 -310 -55 -16 -137 -11 -183 11 -120 59 -176
203 -123 320 53 119 175 175 303 139z m215 -312 c16 -20 -41 -129 -87 -167
-68 -56 -143 -78 -156 -45 -4 10 6 17 34 25 64 17 121 68 155 138 17 34 33 62
36 62 4 0 12 -6 18 -13z m-539 -41 c24 -57 89 -120 146 -142 45 -17 60 -44 24
-44 -30 0 -111 44 -142 77 -36 38 -78 121 -71 139 9 25 23 15 43 -30z"/>
</g>

    <ellipse id="button0" cx="1172" cy="439" rx="71" ry="51" fill="#7a7a7a" fill-opacity="1.0" stroke="#3a3a3a" stroke-width="3" />
    <ellipse id="button1" cx="1557" cy="439" rx="71" ry="51" fill="#7a7a7a" fill-opacity="1.0" stroke="#3a3a3a" stroke-width="3" />
    <ellipse id="button2" cx="1372" cy="516" rx="55" ry="110" fill="#7a7a7a" fill-opacity="1.0" stroke="#3a3a3a" stroke-width="3" />
    <ellipse id="button5" cx="1023" cy="548" rx="26" ry="51" fill="#7a7a7a" fill-opacity="1.0" stroke="#3a3a3a" stroke-width="3" />
    <ellipse id="button6" cx="1262" cy="662" rx="47" ry="39" fill="#7a7a7a" fill-opacity="1.0" stroke="#3a3a3a" stroke-width="3" />
    <ellipse id="button7" cx="1476" cy="712" rx="47" ry="39" fill="#7a7a7a" fill-opacity="1.0" stroke="#3a3a3a" stroke-width="3" />
    <ellipse id="button8" cx="1373" cy="713" rx="47" ry="39" fill="#7a7a7a" fill-opacity="1.0" stroke="#3a3a3a" stroke-width="3" />
    <ellipse id="button9" cx="1721" cy="521" rx="47" ry="78" fill="#7a7a7a" fill-opacity="1.0" stroke="#3a3a3a" stroke-width="3" />
    <ellipse id="button10" cx="326" cy="922" rx="34" ry="21" fill="#7a7a7a" fill-opacity="1.0" stroke="#3a3a3a" stroke-width="3" />
    <ellipse id="button11" cx="465" cy="1028" rx="26" ry="51" fill="#7a7a7a" fill-opacity="1.0" stroke="#3a3a3a" stroke-width="3" />
    <ellipse id="button12" cx="498" cy="1317" rx="26" ry="51" fill="#7a7a7a" fill-opacity="1.0" stroke="#3a3a3a" stroke-width="3" />
    <ellipse id="button13" cx="390" cy="1356" rx="37" ry="23" fill="#7a7a7a" fill-opacity="1.0" stroke="#3a3a3a" stroke-width="3" />
    <ellipse id="button14" cx="193" cy="986" rx="26" ry="51" fill="#7a7a7a" fill-opacity="1.0" stroke="#3a3a3a" stroke-width="3" />
    <ellipse id="button15" cx="365" cy="1053" rx="55" ry="32" fill="#7a7a7a" fill-opacity="1.0" stroke="#3a3a3a" stroke-width="3" />
    <ellipse id="button16" cx="291" cy="1137" rx="39" ry="38" fill="#7a7a7a" fill-opacity="1.0" stroke="#3a3a3a" stroke-width="3" />
    <ellipse id="button17" cx="458" cy="1138" rx="39" ry="38" fill="#7a7a7a" fill-opacity="1.0" stroke="#3a3a3a" stroke-width="3" />
    <ellipse id="button18" cx="375" cy="1224" rx="55" ry="32" fill="#7a7a7a" fill-opacity="1.0" stroke="#3a3a3a" stroke-width="3" />
    <ellipse id="button19" cx="376" cy="1138" rx="31" ry="25" fill="#7a7a7a" fill-opacity="1.0" stroke="#3a3a3a" stroke-width="3" />
    <path id="led0" d="M 1097,331 A 79,38 0 1 0 1255,331 A 79,38 0 1 0 1097,331 Z M 1481,358 A 79,38 0 1 0 1639,358 A 79,38 0 1 0 1481,358 Z" fill="#c83838" fill-opacity="1.0" stroke="#5a1010" stroke-width="3" />
  </g>

  <g
     inkscape:groupmode="layer"
     id="Buttons"
     inkscape:label="Buttons"
     style="display:inline">
    <g id="button0-path">
      <rect x="1850" y="156" width="14" height="14" style="fill:#888888;stroke:#888888;stroke-width:1.5" />
      <path d="M 1850,163 L 1172,439" style="fill:none;stroke:#888;stroke-width:1.5" />
      <rect id="button0-leader" x="1864" y="156" width="1" height="1" style="fill:none;stroke:none;text-align:start" />
    </g>
    <g id="button1-path">
      <rect x="1850" y="252" width="14" height="14" style="fill:#888888;stroke:#888888;stroke-width:1.5" />
      <path d="M 1850,259 L 1557,439" style="fill:none;stroke:#888;stroke-width:1.5" />
      <rect id="button1-leader" x="1864" y="252" width="1" height="1" style="fill:none;stroke:none;text-align:start" />
    </g>
    <g id="button2-path">
      <rect x="1850" y="349" width="14" height="14" style="fill:#888888;stroke:#888888;stroke-width:1.5" />
      <path d="M 1850,356 L 1372,516" style="fill:none;stroke:#888;stroke-width:1.5" />
      <rect id="button2-leader" x="1864" y="349" width="1" height="1" style="fill:none;stroke:none;text-align:start" />
    </g>
    <g id="button9-path">
      <rect x="1850" y="445" width="14" height="14" style="fill:#888888;stroke:#888888;stroke-width:1.5" />
      <path d="M 1850,452 L 1721,521" style="fill:none;stroke:#888;stroke-width:1.5" />
      <rect id="button9-leader" x="1864" y="445" width="1" height="1" style="fill:none;stroke:none;text-align:start" />
    </g>
    <g id="button5-path">
      <rect x="1850" y="542" width="14" height="14" style="fill:#888888;stroke:#888888;stroke-width:1.5" />
      <path d="M 1850,549 L 1023,548" style="fill:none;stroke:#888;stroke-width:1.5" />
      <rect id="button5-leader" x="1864" y="542" width="1" height="1" style="fill:none;stroke:none;text-align:start" />
    </g>
    <g id="button6-path">
      <rect x="1850" y="638" width="14" height="14" style="fill:#888888;stroke:#888888;stroke-width:1.5" />
      <path d="M 1850,645 L 1262,662" style="fill:none;stroke:#888;stroke-width:1.5" />
      <rect id="button6-leader" x="1864" y="638" width="1" height="1" style="fill:none;stroke:none;text-align:start" />
    </g>
    <g id="button7-path">
      <rect x="1850" y="735" width="14" height="14" style="fill:#888888;stroke:#888888;stroke-width:1.5" />
      <path d="M 1850,742 L 1476,712" style="fill:none;stroke:#888;stroke-width:1.5" />
      <rect id="button7-leader" x="1864" y="735" width="1" height="1" style="fill:none;stroke:none;text-align:start" />
    </g>
    <g id="button8-path">
      <rect x="1850" y="831" width="14" height="14" style="fill:#888888;stroke:#888888;stroke-width:1.5" />
      <path d="M 1850,838 L 1373,713" style="fill:none;stroke:#888;stroke-width:1.5" />
      <rect id="button8-leader" x="1864" y="831" width="1" height="1" style="fill:none;stroke:none;text-align:start" />
    </g>
    <g id="button10-path">
      <rect x="1850" y="928" width="14" height="14" style="fill:#888888;stroke:#888888;stroke-width:1.5" />
      <path d="M 1850,935 L 326,922" style="fill:none;stroke:#888;stroke-width:1.5" />
      <rect id="button10-leader" x="1864" y="928" width="1" height="1" style="fill:none;stroke:none;text-align:start" />
    </g>
    <g id="button14-path">
      <rect x="1850" y="1024" width="14" height="14" style="fill:#888888;stroke:#888888;stroke-width:1.5" />
      <path d="M 1850,1031 L 193,986" style="fill:none;stroke:#888;stroke-width:1.5" />
      <rect id="button14-leader" x="1864" y="1024" width="1" height="1" style="fill:none;stroke:none;text-align:start" />
    </g>
    <g id="button11-path">
      <rect x="1850" y="1120" width="14" height="14" style="fill:#888888;stroke:#888888;stroke-width:1.5" />
      <path d="M 1850,1127 L 465,1028" style="fill:none;stroke:#888;stroke-width:1.5" />
      <rect id="button11-leader" x="1864" y="1120" width="1" height="1" style="fill:none;stroke:none;text-align:start" />
    </g>
    <g id="button15-path">
      <rect x="1850" y="1217" width="14" height="14" style="fill:#888888;stroke:#888888;stroke-width:1.5" />
      <path d="M 1850,1224 L 365,1053" style="fill:none;stroke:#888;stroke-width:1.5" />
      <rect id="button15-leader" x="1864" y="1217" width="1" height="1" style="fill:none;stroke:none;text-align:start" />
    </g>
    <g id="button17-path">
      <rect x="1850" y="1313" width="14" height="14" style="fill:#888888;stroke:#888888;stroke-width:1.5" />
      <path d="M 1850,1320 L 458,1138" style="fill:none;stroke:#888;stroke-width:1.5" />
      <rect id="button17-leader" x="1864" y="1313" width="1" height="1" style="fill:none;stroke:none;text-align:start" />
    </g>
    <g id="button19-path">
      <rect x="1850" y="1410" width="14" height="14" style="fill:#888888;stroke:#888888;stroke-width:1.5" />
      <path d="M 1850,1417 L 376,1138" style="fill:none;stroke:#888;stroke-width:1.5" />
      <rect id="button19-leader" x="1864" y="1410" width="1" height="1" style="fill:none;stroke:none;text-align:start" />
    </g>
    <g id="button16-path">
      <rect x="1850" y="1506" width="14" height="14" style="fill:#888888;stroke:#888888;stroke-width:1.5" />
      <path d="M 1850,1513 L 291,1137" style="fill:none;stroke:#888;stroke-width:1.5" />
      <rect id="button16-leader" x="1864" y="1506" width="1" height="1" style="fill:none;stroke:none;text-align:start" />
    </g>
    <g id="button18-path">
      <rect x="1850" y="1603" width="14" height="14" style="fill:#888888;stroke:#888888;stroke-width:1.5" />
      <path d="M 1850,1610 L 375,1224" style="fill:none;stroke:#888;stroke-width:1.5" />
      <rect id="button18-leader" x="1864" y="1603" width="1" height="1" style="fill:none;stroke:none;text-align:start" />
    </g>
    <g id="button12-path">
      <rect x="1850" y="1699" width="14" height="14" style="fill:#888888;stroke:#888888;stroke-width:1.5" />
      <path d="M 1850,1706 L 498,1317" style="fill:none;stroke:#888;stroke-width:1.5" />
      <rect id="button12-leader" x="1864" y="1699" width="1" height="1" style="fill:none;stroke:none;text-align:start" />
    </g>
    <g id="button13-path">
      <rect x="1850" y="1796" width="14" height="14" style="fill:#888888;stroke:#888888;stroke-width:1.5" />
      <path d="M 1850,1803 L 390,1356" style="fill:none;stroke:#888;stroke-width:1.5" />
      <rect id="button13-leader" x="1864" y="1796" width="1" height="1" style="fill:none;stroke:none;text-align:start" />
    </g>
  </g>

  <g
     inkscape:groupmode="layer"
     id="LEDs"
     inkscape:label="LEDs"
     style="display:inline">
    <g id="led0-path">
      <rect x="1850" y="60" width="14" height="14" style="fill:#888888;stroke:#888888;stroke-width:1.5" />
      <path d="M 1850,67 L 1176,331" style="fill:none;stroke:#888;stroke-width:1.5" />
      <rect id="led0-leader" x="1864" y="60" width="1" height="1" style="fill:none;stroke:none;text-align:start" />
    </g>
  </g>
</svg>
